<?xml version="1.0" standalone="no"?>
<!DOCTYPE svg PUBLIC "-//W3C//DTD SVG 20010904//EN"
 "http://www.w3.org/TR/2001/REC-SVG-20010904/DTD/svg10.dtd">
<svg version="1.0" xmlns="http://www.w3.org/2000/svg"
 width="1366.000000pt" height="2049.000000pt" viewBox="0 0 1366.000000 2049.000000"
 preserveAspectRatio="xMidYMid meet">

<g transform="translate(0.000000,2049.000000) scale(0.100000,-0.100000)"
fill="#000000" stroke="none">
<path d="M0 20050 c0 -433 0 -440 20 -440 11 0 20 4 20 10 0 11 46 24 157 45
130 26 156 32 215 54 32 12 66 21 76 21 10 0 27 7 38 15 10 8 40 15 66 15 25
0 48 4 50 9 3 9 178 59 238 68 19 3 40 9 46 14 7 5 61 21 120 35 157 37 171
40 254 63 41 12 122 26 180 31 58 5 113 12 123 16 22 8 77 62 77 75 0 5 6 9
13 9 7 0 18 9 25 20 7 11 17 20 23 20 6 0 23 8 37 18 17 12 63 23 122 31 52 7
109 14 127 17 44 6 101 65 108 112 4 20 10 47 16 60 5 13 9 45 9 72 l0 50
-1080 0 -1080 0 0 -440z m1700 266 c0 -24 -17 -28 -23 -6 -3 13 0 20 9 20 8 0
14 -6 14 -14z"/>
<path d="M7452 20433 c-14 -71 -23 -387 -14 -463 l7 -55 40 -5 c22 -3 63 -2
90 2 87 12 219 36 235 42 16 7 258 40 405 56 44 5 107 14 140 20 33 6 103 15
155 21 52 6 130 17 173 25 42 8 109 14 147 14 38 0 97 6 132 14 35 7 104 19
153 26 50 7 125 18 169 26 43 8 104 14 135 14 54 0 186 36 240 65 66 35 128
50 211 50 71 0 91 -4 122 -23 31 -19 38 -31 45 -70 11 -66 8 -317 -6 -442 -10
-94 -15 -450 -7 -524 1 -15 9 -32 17 -36 8 -5 143 -11 301 -15 158 -3 301 -10
320 -15 18 -6 47 -10 65 -10 17 0 34 -4 37 -8 9 -14 147 -13 241 3 102 17 359
19 500 4 197 -21 202 -21 232 -6 25 13 33 13 62 1 38 -16 167 -19 176 -4 3 6
28 10 56 10 27 0 49 -4 49 -10 0 -6 33 -10 79 -10 45 0 81 -4 83 -10 2 -6 99
-14 243 -20 244 -9 369 -22 391 -40 7 -7 142 -10 373 -8 203 2 362 -1 364 -6
2 -5 10 -1 19 8 12 12 18 13 21 3 3 -6 6 313 6 711 l1 722 -780 0 -780 0 0
-27 c0 -67 -12 -101 -36 -107 -13 -4 -24 -11 -24 -16 0 -6 -18 -10 -39 -10
-25 0 -41 -5 -45 -15 -4 -11 -21 -15 -61 -15 -42 0 -55 3 -55 15 0 8 -4 15
-10 15 -5 0 -13 18 -16 40 -4 22 -10 40 -14 40 -4 0 -10 18 -14 40 l-6 40
-2159 0 -2158 0 -11 -57z"/>
<path d="M13130 18503 c-19 -9 -45 -20 -57 -26 -11 -5 -26 -7 -31 -3 -13 7
-72 -12 -94 -32 -10 -8 -18 -22 -18 -30 0 -8 -20 -41 -45 -74 -50 -67 -55 -97
-25 -143 25 -38 25 -57 0 -73 -11 -7 -20 -21 -20 -32 0 -11 9 -25 20 -32 12
-8 20 -24 20 -40 0 -23 6 -29 40 -39 28 -9 40 -18 40 -31 0 -13 7 -18 28 -18
15 0 33 -5 40 -12 9 -9 12 -9 12 0 0 7 16 12 40 12 22 0 40 5 40 10 0 17 21
11 54 -13 17 -13 50 -31 74 -40 l43 -17 17 31 c9 18 25 39 35 48 9 9 29 26 43
39 14 12 31 22 39 22 10 0 15 10 15 29 0 16 6 36 14 43 7 8 17 46 21 86 6 61
4 75 -12 99 -11 15 -23 36 -26 46 -4 9 -13 17 -22 17 -22 0 -70 42 -150 133
-55 62 -74 67 -135 40z m125 -278 c14 -14 25 -32 25 -40 0 -7 6 -16 13 -18 21
-9 -14 -27 -54 -27 -24 0 -39 5 -43 15 -3 9 -18 15 -36 15 -28 0 -30 2 -30 40
l0 40 50 0 c39 0 54 -5 75 -25z"/>
<path d="M13623 16130 c0 -25 2 -35 4 -22 2 12 2 32 0 45 -2 12 -4 2 -4 -23z"/>
<path d="M13640 16130 c0 -22 5 -40 10 -40 6 0 10 18 10 40 0 22 -4 40 -10 40
-5 0 -10 -18 -10 -40z"/>
<path d="M8295 14960 c-19 -8 -19 -9 3 -9 12 -1 22 4 22 9 0 6 -1 10 -2 9 -2
0 -12 -4 -23 -9z"/>
<path d="M8332 14949 c-7 -10 -20 -19 -28 -19 -9 0 -23 -8 -30 -17 -9 -14 -28
-18 -82 -20 -73 -1 -125 -20 -173 -64 -52 -49 -118 -99 -128 -99 -6 0 -11 -3
-11 -7 0 -5 -36 -45 -79 -90 -86 -90 -169 -184 -203 -229 -12 -16 -34 -42 -49
-59 -61 -67 -222 -366 -259 -480 -7 -22 -15 -44 -18 -50 -18 -29 -52 -144 -52
-173 0 -19 -6 -35 -14 -38 -8 -3 -18 -24 -21 -46 -4 -23 -16 -59 -26 -82 -10
-23 -19 -57 -19 -77 0 -20 -3 -38 -6 -42 -3 -3 -7 -42 -9 -87 -1 -45 -7 -85
-12 -89 -10 -6 -30 -47 -52 -106 -6 -16 -16 -61 -21 -100 -15 -111 -26 -154
-44 -174 -9 -9 -16 -23 -16 -29 0 -6 -9 -29 -20 -50 -14 -27 -22 -66 -26 -130
-4 -80 -8 -95 -29 -118 -14 -15 -25 -31 -25 -35 0 -5 -35 -62 -78 -127 -86
-129 -96 -148 -82 -157 11 -7 2 -56 -10 -65 -4 -3 -14 -21 -22 -40 -9 -20 -22
-42 -29 -50 -42 -44 -55 -100 -23 -100 11 0 11 -5 2 -25 -6 -14 -15 -25 -20
-25 -4 0 -8 -5 -8 -11 0 -7 -16 -45 -35 -85 -19 -40 -35 -80 -35 -88 0 -9 -4
-16 -9 -16 -12 0 -21 39 -10 46 5 3 9 20 9 38 0 19 7 39 15 46 8 7 15 18 15
24 0 6 14 27 30 46 32 37 37 50 20 50 -18 0 -58 -52 -71 -92 -7 -21 -16 -38
-20 -38 -4 0 -15 -26 -25 -57 -9 -32 -26 -68 -36 -80 -19 -20 -19 -21 -1 -25
14 -3 9 -8 -19 -22 -21 -10 -38 -24 -38 -31 0 -7 -2 -22 -5 -32 -3 -11 -1 -9
6 5 19 36 29 26 30 -30 0 -46 2 -50 11 -30 6 12 14 22 18 22 13 0 21 -49 14
-86 -6 -32 -24 -48 -24 -21 -1 31 -20 -26 -26 -77 -6 -49 -5 -56 11 -56 16 0
17 -8 11 -101 -7 -95 -20 -140 -65 -219 -14 -25 -71 -176 -71 -188 0 -7 -4
-20 -9 -30 -23 -41 -63 -140 -72 -177 -54 -214 -93 -421 -82 -438 3 -6 26 67
49 162 23 96 47 178 53 184 6 6 11 22 11 36 0 26 2 34 45 166 23 70 53 138
114 263 9 18 24 40 34 49 16 15 17 14 17 -20 0 -20 -4 -39 -10 -42 -5 -3 -10
-16 -10 -28 0 -12 -7 -31 -15 -41 -8 -11 -15 -32 -15 -46 0 -14 -4 -30 -9 -35
-5 -6 -17 -35 -26 -65 -10 -30 -29 -80 -43 -110 -37 -84 -39 -89 -68 -190 -46
-163 -54 -193 -69 -253 l-14 -58 112 -73 c300 -195 542 -350 675 -431 57 -35
62 -41 62 -72 0 -55 -27 -103 -58 -103 -20 0 -49 -24 -124 -101 -54 -56 -98
-106 -98 -110 0 -5 -4 -9 -10 -9 -9 0 -99 52 -180 104 -93 61 -146 93 -160 99
-8 4 -80 49 -160 101 -80 52 -148 91 -152 88 -6 -6 -38 -288 -38 -337 0 -12
-3 -16 -8 -9 -4 7 -8 -34 -10 -90 -2 -80 -6 -104 -19 -113 -9 -7 -20 -10 -25
-7 -5 3 -12 -2 -14 -12 -3 -11 -20 -28 -37 -39 -69 -44 -96 -146 -61 -231 27
-66 66 -144 75 -150 15 -9 11 -76 -3 -69 -7 4 -5 0 5 -8 14 -12 17 -32 17
-131 0 -71 4 -116 10 -116 15 0 12 -62 -5 -110 -8 -23 -13 -46 -10 -50 8 -13
-34 -117 -49 -123 -18 -7 -26 1 -26 25 0 10 -6 18 -13 18 -13 0 -47 81 -47
113 0 10 -4 15 -10 12 -13 -8 -13 -125 -1 -125 5 0 12 -28 15 -63 11 -128 51
-328 68 -338 15 -10 16 -308 1 -317 -14 -9 -46 -92 -35 -92 4 -1 -2 -9 -13
-18 -11 -10 -25 -27 -31 -37 -6 -11 -26 -29 -44 -40 -18 -11 -49 -35 -68 -54
-23 -23 -36 -30 -41 -23 -5 8 -18 0 -41 -23 -19 -19 -30 -35 -25 -35 4 0 0 -9
-11 -21 -15 -17 -27 -20 -62 -16 -37 4 -45 1 -59 -19 -14 -21 -23 -24 -82 -24
-63 0 -67 2 -95 35 -25 29 -34 33 -60 28 -17 -3 -37 -10 -43 -16 -10 -7 -13
-4 -13 12 0 18 -6 21 -48 21 -26 0 -57 -7 -69 -15 l-22 -15 26 -49 c37 -72
134 -181 190 -215 26 -17 79 -65 116 -108 38 -42 94 -97 126 -120 57 -43 91
-91 91 -129 0 -32 -19 -61 -68 -105 l-46 -41 18 -79 c28 -118 28 -131 2 -177
-13 -23 -37 -67 -54 -98 -17 -32 -38 -70 -48 -85 -18 -29 -18 -29 2 -12 11 10
56 71 100 135 43 65 82 120 87 121 4 2 7 10 7 17 0 7 4 15 8 17 21 8 100 130
126 193 15 39 32 79 37 90 4 11 30 72 57 135 74 173 122 270 133 270 15 0 -6
-76 -46 -165 -7 -16 -55 -126 -105 -244 -100 -233 -125 -276 -253 -446 -4 -5
-42 -53 -85 -106 -115 -142 -122 -152 -140 -181 -9 -16 -20 -28 -24 -28 -4 0
-8 -6 -8 -14 0 -8 -4 -16 -9 -18 -14 -5 -112 -169 -152 -253 -20 -44 -72 -127
-114 -185 -43 -58 -97 -145 -120 -195 -24 -49 -64 -136 -91 -192 -26 -57 -51
-103 -55 -103 -4 0 -11 25 -14 55 -4 30 -12 61 -19 70 -12 17 -15 16 -326 -20
-74 -9 -175 -20 -224 -25 -63 -6 -103 -16 -142 -36 -30 -15 -54 -31 -54 -35 0
-4 -13 -12 -30 -18 -18 -6 -30 -6 -30 0 0 17 -20 9 -20 -8 -1 -24 -34 -63 -54
-63 -40 0 -51 72 -30 198 l5 33 -38 -7 c-36 -7 -128 -50 -164 -77 -20 -15 -31
-91 -16 -106 6 -6 23 -11 39 -11 43 0 52 -28 38 -120 l-12 -78 50 -103 c34
-69 53 -123 57 -159 11 -95 64 -291 97 -352 13 -27 -9 -22 -26 4 -8 13 -24 48
-37 78 -22 53 -41 80 -54 80 -3 0 -3 -9 0 -20 4 -12 0 -31 -8 -44 -8 -12 -17
-33 -19 -46 -5 -35 -22 -35 -39 0 -13 29 -14 24 -11 -68 3 -87 1 -102 -18
-135 -12 -21 -31 -42 -41 -47 -11 -7 -16 -16 -12 -27 6 -14 1 -15 -38 -9 -49
8 -98 22 -147 42 -64 27 -66 25 -59 -85 8 -125 25 -230 43 -258 8 -13 35 -28
63 -37 27 -8 62 -21 77 -29 16 -8 56 -22 89 -31 53 -14 61 -14 76 0 21 19 34
3 20 -23 -21 -41 -31 -101 -21 -128 12 -33 12 -35 0 -35 -5 0 -10 8 -10 18 0
14 -2 14 -9 3 -5 -8 -7 -19 -5 -26 3 -6 0 -22 -5 -36 -7 -17 -10 -19 -10 -6
-1 9 -8 17 -17 17 -50 0 -177 91 -205 147 -30 59 -71 123 -80 123 -5 0 -9 15
-9 33 0 24 -3 28 -10 17 -8 -12 -10 -11 -10 7 0 14 -5 21 -12 18 -8 -3 -21 14
-33 41 -11 25 -24 48 -29 51 -5 4 -6 1 -2 -5 4 -7 2 -10 -7 -6 -9 3 -12 14 -9
31 4 22 2 25 -12 20 -14 -6 -16 -3 -10 15 5 17 3 20 -10 15 -10 -4 -16 -1 -16
7 0 7 -9 21 -20 31 -11 10 -20 24 -20 32 0 7 -9 21 -20 30 -11 10 -20 23 -20
29 0 6 -10 23 -21 38 -18 23 -26 26 -53 20 -17 -4 -42 -15 -56 -26 -22 -17
-25 -18 -28 -4 -2 8 6 25 17 38 12 12 21 28 21 35 0 7 5 13 12 13 6 0 9 3 6 6
-7 6 -180 -11 -298 -31 -47 -8 -134 -21 -195 -30 -219 -33 -518 -112 -600
-158 -34 -19 -40 -28 -43 -60 -3 -30 0 -36 12 -31 9 3 16 1 16 -5 0 -14 -11
-14 -44 -1 -22 8 -26 16 -26 50 0 23 4 71 10 108 45 313 44 311 21 333 -11 11
-23 32 -26 47 -4 15 -20 60 -37 100 -17 39 -28 81 -25 92 6 24 3 25 -22 3 -11
-9 -18 -20 -15 -25 9 -13 -4 -9 -20 8 -15 14 -16 13 -16 -13 0 -38 -10 -73
-21 -73 -5 0 -9 5 -9 11 0 6 -8 23 -19 37 -10 15 -24 45 -31 66 -7 22 -22 49
-32 60 -25 27 -88 153 -88 176 0 14 9 20 32 22 50 5 43 23 -17 48 -42 17 -55
27 -52 39 3 9 18 63 35 121 54 186 53 202 -14 214 -40 8 -104 60 -104 86 0 23
13 32 83 60 61 25 61 25 72 115 6 46 43 155 67 200 8 14 8 20 -1 23 -21 7 -11
31 22 56 19 15 40 26 47 26 8 0 10 6 5 18 -17 40 -16 54 5 94 13 24 30 57 38
73 8 17 27 44 43 60 24 27 34 55 30 91 -1 6 -14 17 -30 24 -32 13 -71 0 -71
-23 -1 -18 -70 -67 -96 -67 -14 0 -31 12 -45 33 -31 44 -149 155 -174 163 -11
4 -49 34 -85 68 -36 34 -87 79 -114 101 -183 150 -250 213 -336 315 -79 93
-110 129 -156 179 l-41 44 -21 -21 c-28 -28 -40 -27 -154 3 -109 28 -259 50
-293 41 -13 -3 -25 -2 -27 4 -2 6 -13 4 -29 -4 -14 -7 -42 -16 -62 -20 -47 -9
-55 -23 -22 -38 24 -11 24 -12 9 -30 -10 -10 -25 -18 -36 -18 -16 0 -18 -10
-18 -120 l0 -121 47 2 c27 1 60 -3 74 -9 15 -6 29 -8 32 -6 12 12 -81 84 -108
84 -25 0 -12 24 19 35 22 8 30 6 37 -8 7 -11 22 -17 47 -17 l37 1 -34 18 c-19
10 -30 21 -24 24 5 3 43 9 84 12 74 6 135 -3 319 -50 145 -37 300 -147 353
-252 22 -42 38 -132 31 -169 -4 -21 -21 -47 -49 -71 -23 -22 -44 -45 -46 -52
-3 -9 -33 -15 -94 -18 -73 -4 -102 -1 -154 16 -71 23 -91 26 -91 11 0 -5 5
-10 10 -10 6 0 10 -5 10 -11 0 -6 -9 -8 -22 -4 -22 7 -23 7 -3 -8 11 -8 36
-19 56 -26 96 -31 223 -132 260 -206 11 -22 26 -51 34 -65 8 -14 15 -42 15
-62 0 -43 -25 -145 -40 -163 -7 -8 1 -27 29 -66 21 -30 53 -81 71 -114 19 -33
50 -80 71 -105 45 -55 98 -159 135 -265 26 -75 28 -93 32 -281 l4 -201 -36
-72 c-30 -59 -35 -77 -30 -111 9 -57 69 -120 161 -170 42 -22 92 -54 112 -69
20 -15 47 -34 61 -41 33 -18 190 -51 210 -45 12 4 19 -4 27 -29 9 -29 7 -40
-8 -65 -10 -17 -23 -60 -29 -96 -11 -71 -40 -110 -88 -121 -42 -9 -82 -26 -82
-34 0 -13 -138 -53 -162 -46 -13 3 -39 19 -58 36 -19 17 -63 52 -98 78 -35 26
-104 79 -153 119 -82 65 -94 71 -124 66 -23 -4 -43 0 -59 11 -30 19 -36 20
-36 5 0 -6 -25 -36 -55 -67 -30 -31 -55 -63 -55 -69 0 -7 -7 -13 -15 -13 -8 0
-15 -3 -15 -8 0 -7 -139 -152 -146 -152 -1 0 -15 -11 -29 -24 -14 -13 -38 -26
-54 -29 -16 -4 -41 -17 -55 -30 -15 -14 -39 -29 -54 -35 -62 -23 -135 -43
-140 -38 -3 3 2 6 11 6 10 0 17 7 17 15 0 9 10 15 23 16 15 1 17 3 5 6 -9 2
-29 -2 -45 -11 -16 -8 -47 -18 -68 -22 -37 -7 -38 -8 -15 -15 23 -6 23 -7 3
-8 -12 -1 -25 4 -28 9 -9 15 -35 12 -35 -4 0 -8 6 -17 13 -20 9 -5 9 -7 -1
-12 -17 -8 -17 -444 1 -444 8 0 7 -3 -2 -9 -11 -7 -11 -9 0 -14 12 -5 11 -7
-1 -16 -21 -14 -10 -19 34 -13 25 3 34 7 25 13 -7 4 -10 12 -5 16 4 4 16 -3
27 -16 11 -13 25 -21 34 -17 20 7 19 26 0 26 -9 0 -18 7 -21 15 -4 8 -15 15
-27 15 -43 0 -6 12 45 14 29 2 62 6 73 10 20 8 20 7 1 -8 -11 -9 -28 -16 -38
-16 -22 0 -23 -13 -4 -29 10 -8 16 -9 21 -1 3 5 0 10 -7 11 -7 0 0 5 17 11 16
6 36 17 43 25 18 17 43 17 71 -3 17 -12 26 -13 34 -5 15 15 27 14 27 -3 0 -8
7 -17 16 -20 23 -9 31 -7 15 3 -9 6 -11 16 -6 27 7 18 7 18 14 0 11 -30 24 -2
16 34 -5 21 -13 30 -26 30 -11 0 -18 4 -15 9 3 5 28 8 56 6 27 -1 50 1 50 6 0
5 -9 9 -21 9 -12 0 -17 4 -13 11 3 6 15 9 25 6 10 -3 22 -1 25 5 4 5 13 3 23
-7 10 -8 29 -14 42 -13 15 2 24 -2 24 -12 0 -8 10 -16 23 -18 21 -3 23 -7 17
-42 -6 -35 -5 -38 20 -38 14 0 32 -8 40 -18 13 -17 16 -17 25 -4 7 11 5 16 -8
19 -9 2 -28 14 -42 28 -19 19 -21 26 -10 33 11 7 11 10 -1 22 -8 8 -23 18 -34
22 -20 8 -20 8 0 16 12 4 27 15 34 24 11 14 11 16 -3 16 -9 0 -16 5 -16 11 0
7 -15 10 -40 7 -24 -2 -41 1 -44 8 -7 17 4 24 37 24 25 0 28 2 17 15 -10 13
-9 15 9 15 11 0 21 6 21 13 0 8 3 8 8 1 9 -13 45 -27 37 -15 -3 5 9 13 27 16
18 4 42 14 53 21 11 8 24 14 30 14 14 0 38 -54 25 -58 -12 -4 -14 -42 -1 -42
5 0 11 9 14 20 3 11 12 20 21 20 9 0 16 5 16 11 0 7 10 20 22 30 26 23 78 26
78 4 0 -8 6 -15 14 -15 19 0 29 17 16 25 -7 4 -7 12 0 26 7 13 7 19 0 19 -20
0 -9 27 15 38 34 15 35 15 33 -6 -1 -9 0 -33 1 -52 1 -35 2 -35 19 -14 9 12
23 23 30 26 10 2 8 10 -7 27 -12 13 -21 30 -21 37 0 7 -6 14 -12 17 -7 2 -10
8 -6 12 4 4 15 2 23 -5 12 -10 19 -10 27 -2 16 16 28 15 28 -3 0 -9 6 -12 15
-9 9 4 17 -1 20 -10 3 -9 8 -24 12 -34 3 -9 7 -23 9 -30 4 -21 11 -25 31 -18
15 6 15 8 3 16 -8 5 -15 15 -16 22 -1 18 -16 52 -25 58 -5 3 0 11 9 17 14 8
29 4 74 -22 64 -38 86 -34 36 6 l-33 27 28 7 c15 4 27 13 27 21 0 8 10 14 25
14 14 0 25 -4 25 -10 0 -5 13 -10 29 -10 21 0 32 -6 36 -20 7 -23 57 -40 63
-22 2 7 12 12 21 12 19 0 51 30 51 47 0 6 -6 14 -12 16 -7 3 2 6 20 6 22 1 32
-4 32 -14 0 -8 -7 -15 -15 -15 -8 0 -15 -4 -15 -10 0 -5 19 -10 43 -10 23 0
49 -4 57 -9 17 -12 50 37 50 74 0 14 5 25 10 25 6 0 10 -7 10 -15 0 -8 6 -33
12 -55 12 -38 14 -39 55 -37 38 2 41 4 36 25 -3 14 -1 22 8 22 11 0 11 2 -1
10 -8 5 -12 11 -9 15 3 3 19 -7 35 -22 18 -17 24 -28 16 -31 -6 -2 -12 -8 -12
-13 0 -14 28 -11 33 4 4 9 6 9 6 0 1 -19 21 -16 21 3 0 11 6 14 22 8 31 -9 33
-11 18 -29 -7 -8 -26 -15 -43 -15 -29 0 -30 -1 -11 -14 15 -12 22 -12 34 -2 8
7 39 14 68 15 l52 2 0 -36 c0 -41 10 -43 56 -14 25 15 55 22 109 24 42 2 75
-1 75 -6 0 -5 -4 -9 -10 -9 -5 0 -10 -4 -10 -10 0 -5 11 -10 25 -10 14 0 25 5
25 10 0 6 -4 10 -10 10 -5 0 -10 7 -10 15 0 8 7 15 16 15 8 0 12 4 9 10 -3 6
4 10 16 10 22 0 22 -1 4 -13 -19 -15 -13 -37 11 -37 8 0 14 -9 14 -20 0 -16 6
-20 33 -19 30 0 31 1 10 11 -13 6 -23 17 -23 25 0 20 37 15 53 -7 10 -14 30
-22 65 -27 37 -4 49 -9 45 -19 -4 -10 5 -14 33 -14 36 0 37 1 18 15 -18 15
-15 15 37 13 49 -3 55 -1 51 15 -5 18 -22 24 -22 7 0 -15 -30 -12 -47 6 -9 8
-22 13 -29 10 -7 -3 -16 -1 -19 3 -10 17 28 21 45 6 19 -17 46 -20 55 -5 3 6
18 -3 32 -20 13 -16 31 -30 39 -30 8 0 17 -7 20 -15 4 -8 10 -12 16 -9 5 3 3
13 -6 23 -15 16 -14 17 14 13 17 -2 30 0 30 6 0 16 39 21 54 6 20 -20 28 -17
21 6 -8 26 13 34 56 22 25 -7 28 -10 12 -11 -27 -1 -38 -17 -17 -25 25 -10 64
-7 64 5 0 5 5 7 10 4 6 -4 8 -11 5 -16 -4 -5 1 -12 9 -15 9 -3 16 -12 16 -20
0 -22 31 -17 37 6 4 16 14 20 45 20 35 0 39 -2 33 -20 -5 -15 -3 -18 9 -14 18
7 21 20 6 29 -17 10 -11 35 8 35 19 -1 63 -30 44 -30 -7 0 -12 -4 -12 -10 0
-5 9 -10 20 -10 13 0 18 -5 14 -15 -8 -19 10 -19 26 0 13 16 45 21 35 6 -3 -5
-1 -12 5 -16 5 -3 10 1 10 9 0 11 10 16 31 16 17 0 28 -4 24 -10 -6 -10 53
-45 62 -37 2 3 -5 8 -16 12 -21 6 -30 45 -11 45 6 0 10 -4 10 -10 0 -5 9 -10
19 -10 11 0 22 -4 26 -10 3 -5 12 -7 21 -3 8 3 23 -2 34 -12 17 -15 22 -16 36
-5 12 11 17 11 23 1 5 -7 19 -10 37 -7 16 4 23 3 17 0 -7 -3 -13 -12 -13 -19
0 -16 -62 -139 -72 -143 -5 -2 -8 -11 -8 -19 0 -12 -7 -14 -30 -10 -32 7 -34
11 20 -52 8 -10 24 -21 36 -25 11 -3 27 -18 34 -31 7 -14 20 -25 29 -25 11 0
12 3 4 8 -7 5 -9 13 -3 22 7 11 15 12 46 2 20 -6 41 -9 46 -6 4 3 8 0 8 -5 0
-6 -12 -11 -27 -12 -25 0 -25 -1 -8 -8 11 -5 28 -4 37 0 22 12 96 0 125 -18
12 -8 26 -12 32 -9 14 9 42 -5 34 -17 -4 -7 0 -8 13 -2 30 13 85 14 134 3 25
-6 59 -11 75 -13 202 -15 234 -29 236 -103 l1 -47 9 40 c6 22 21 56 35 77 25
36 25 36 20 215 -3 115 -9 192 -19 218 -32 94 -82 475 -74 575 6 68 56 194 81
203 7 3 17 18 20 33 4 15 18 39 31 53 69 73 115 127 115 133 0 4 10 18 23 31
12 13 29 34 37 46 23 37 102 143 130 175 14 16 45 53 70 81 73 84 114 135 130
163 8 14 21 33 28 41 8 8 24 30 36 50 20 30 94 116 169 196 10 11 33 40 50 65
36 53 26 39 125 165 43 55 88 121 100 147 12 27 31 67 42 90 11 24 38 63 60
88 22 25 43 50 47 55 5 6 34 42 66 80 32 39 64 77 70 85 7 8 31 38 55 67 23
28 42 56 42 62 0 6 4 11 8 11 5 0 40 48 78 108 87 135 90 140 110 179 9 18 22
37 30 44 8 6 14 16 14 21 0 5 17 35 39 66 21 31 53 86 71 121 32 65 95 165
118 189 6 7 12 20 12 28 0 8 5 14 10 14 6 0 10 4 10 9 0 9 59 110 70 121 3 3
17 26 30 52 17 32 27 43 33 35 5 -7 7 -1 4 17 -3 15 1 40 9 55 7 14 38 80 69
146 31 66 63 133 70 148 8 16 15 35 15 42 0 7 7 15 15 19 8 3 15 12 15 19 0 8
7 20 15 27 8 7 15 23 15 35 0 29 32 102 59 135 18 21 22 23 32 10 8 -12 9 -10
4 10 -15 53 -4 113 17 92 15 -15 68 -16 68 -2 0 6 -13 10 -28 10 -35 0 -41 6
-35 31 4 16 11 19 29 15 29 -8 32 9 4 24 -22 12 -21 28 6 84 8 16 14 35 14 43
0 22 17 15 22 -9 2 -13 1 -57 -3 -98 -4 -42 -3 -76 2 -78 5 -2 9 -18 9 -35 0
-18 5 -51 10 -75 6 -23 14 -82 19 -131 5 -49 14 -97 20 -107 5 -11 19 -53 31
-94 36 -123 50 -164 60 -180 8 -13 11 -11 16 8 5 17 14 22 41 22 28 0 33 3 29
18 -3 9 -12 42 -20 72 -16 63 -27 93 -36 100 -15 13 -100 175 -100 192 0 11 5
29 11 41 15 28 17 61 20 310 1 201 3 213 32 208 13 -2 7 22 -9 34 -15 10 -15
17 -2 71 13 52 18 59 38 56 14 -2 20 0 16 7 -4 6 -14 11 -22 11 -11 0 -14 6
-9 23 4 12 11 26 16 31 5 6 9 20 9 33 0 13 21 94 46 181 123 415 139 505 185
1027 6 72 14 133 18 137 3 4 38 -13 76 -37 39 -25 74 -45 79 -45 4 0 31 -12
60 -26 116 -59 208 -79 291 -62 58 11 119 54 128 89 5 19 4 19 -11 7 -9 -8
-34 -22 -55 -32 -20 -9 -35 -21 -32 -27 8 -12 -2 -12 -26 1 -15 8 -19 7 -19
-5 0 -8 -7 -15 -15 -15 -8 0 -15 -4 -15 -10 0 -5 -4 -10 -10 -10 -18 0 -10 17
13 28 21 10 21 11 -7 11 -21 1 -27 5 -22 16 3 8 0 15 -6 15 -6 0 -9 2 -6 5 3
3 13 2 22 -1 14 -5 15 -9 4 -15 -18 -12 30 -11 57 1 18 8 17 9 -7 9 -16 1 -28
5 -28 11 0 5 -12 13 -27 16 -15 4 -48 20 -73 35 -25 15 -93 55 -151 89 -96 55
-106 63 -101 85 4 22 1 25 -26 25 -40 0 -62 9 -62 26 0 15 -25 20 -33 7 -2 -5
-3 -3 -1 3 1 6 -7 16 -17 22 -24 15 -26 -3 -4 -55 20 -47 19 -60 -5 -73 -16
-8 -18 -8 -14 4 4 10 -3 15 -23 18 -25 3 -29 9 -44 63 -8 33 -19 71 -23 85 -4
15 -4 20 1 13 11 -15 106 -35 128 -27 8 4 15 14 16 23 0 12 2 11 8 -4 7 -17
16 -20 69 -17 l60 4 16 41 c8 23 22 67 30 97 16 60 38 122 46 130 14 14 40 71
40 88 0 23 25 77 56 119 13 17 24 40 24 50 0 15 2 16 10 3 10 -16 13 -11 25
45 3 17 12 57 19 90 l12 60 11 -45 c11 -43 11 -42 10 35 -1 44 -5 82 -8 85
-12 9 -13 155 -1 195 33 116 92 389 85 394 -5 3 -14 23 -20 43 -9 30 -8 40 3
49 8 6 14 8 14 5 0 -4 9 -2 21 4 11 7 18 17 16 25 -3 7 -1 17 4 22 9 9 12 31
17 126 2 20 7 27 22 27 11 0 20 -4 20 -10 0 -5 5 -10 10 -10 6 0 10 6 10 13 0
21 46 59 67 55 19 -4 21 -21 11 -73 -9 -44 4 -62 34 -48 13 7 18 12 11 12 -6
1 -9 10 -6 21 5 18 13 19 82 18 42 -2 78 -6 81 -10 3 -4 22 -2 42 4 l37 11 3
97 3 98 -65 4 c-63 5 -180 50 -180 70 0 4 -4 8 -9 8 -26 0 -164 162 -155 183
4 10 -1 15 -13 14 -10 -1 -22 8 -28 21 -5 12 -13 22 -16 22 -7 0 -99 90 -99
97 0 2 -13 16 -30 30 -16 13 -30 31 -30 38 0 8 -6 18 -13 22 -42 24 -128 188
-167 318 -12 39 -26 81 -31 94 -21 52 -41 190 -40 290 0 74 7 144 25 230 25
125 32 143 44 125 4 -5 23 -11 42 -13 19 -2 37 -6 40 -11 3 -4 22 -10 44 -14
36 -7 38 -6 33 13 -3 12 0 19 7 18 6 -1 10 4 8 12 -9 39 24 91 57 91 14 0 20
-10 24 -42 11 -81 86 -105 146 -47 36 34 42 33 45 -5 1 -18 7 -26 19 -26 23 0
22 34 -1 68 -10 15 -22 35 -25 45 -4 10 -12 15 -17 12 -15 -9 -60 22 -60 41 0
12 -6 15 -27 10 -19 -4 -23 -4 -14 3 11 7 10 10 -5 14 -27 8 -106 11 -124 4
-8 -3 -36 -11 -62 -18 -27 -7 -48 -19 -48 -26 0 -8 -14 -13 -40 -13 l-40 0 0
53 c1 70 21 142 40 142 8 0 16 8 18 18 3 16 1 17 -17 7 -19 -9 -21 -8 -21 13
0 12 7 50 16 82 9 33 17 69 19 80 12 85 29 146 57 203 35 71 105 172 119 172
5 0 9 5 9 11 0 10 88 99 97 99 2 0 14 9 26 20 12 12 41 26 65 32 23 6 45 14
48 19 3 5 14 9 25 9 10 0 27 4 37 9 9 5 42 19 72 31 30 12 62 28 70 34 8 7 50
26 94 42 56 21 81 35 87 52 10 25 47 30 55 7 4 -8 15 -15 25 -15 10 0 19 -7
19 -15 0 -8 4 -15 9 -15 5 0 27 -15 49 -32 22 -18 59 -44 82 -58 23 -14 57
-40 75 -57 19 -18 38 -33 43 -33 5 0 18 -11 28 -25 10 -14 24 -25 31 -25 10 0
23 -22 23 -42 0 -10 37 -48 46 -48 4 0 4 9 1 20 -3 11 -2 20 1 20 11 0 92 -84
92 -95 1 -14 57 -75 70 -75 5 0 10 -7 10 -15 0 -8 4 -15 8 -15 5 0 18 -17 29
-37 12 -21 30 -47 40 -58 10 -11 27 -40 38 -65 11 -25 22 -47 25 -50 9 -9 58
-104 65 -130 4 -14 13 -29 20 -35 6 -5 24 -39 39 -75 16 -36 35 -70 42 -76 8
-6 14 -16 14 -22 0 -6 14 -40 30 -75 17 -36 30 -71 30 -79 0 -8 4 -18 9 -24 5
-5 16 -31 25 -59 12 -38 16 -99 17 -260 1 -115 6 -215 11 -222 18 -23 -40
-254 -93 -368 -27 -60 -93 -149 -169 -228 -76 -81 -81 -91 -40 -85 60 9 69
-12 76 -174 4 -98 2 -168 -7 -223 -7 -44 -12 -104 -11 -132 1 -29 -3 -53 -8
-53 -6 0 -10 8 -11 18 0 9 -5 2 -11 -17 -5 -18 -16 -40 -24 -48 -19 -19 -18
-25 6 -46 29 -25 26 -48 -30 -232 -12 -38 -24 -81 -26 -95 -3 -14 -9 -52 -15
-85 -6 -33 -15 -78 -20 -100 -5 -22 -27 -120 -50 -218 -22 -98 -45 -191 -50
-205 -11 -28 -12 -33 -53 -257 -24 -134 -34 -265 -17 -220 5 11 6 27 3 35 -2
8 2 6 11 -5 8 -11 19 -17 22 -13 11 10 23 75 45 225 11 72 28 176 40 231 11
55 20 108 20 119 0 10 7 31 15 47 8 15 24 67 35 115 29 121 133 478 191 656
26 83 55 175 63 205 l14 55 1 -71 c1 -39 -4 -97 -9 -130 -17 -96 -52 -246 -66
-286 -8 -21 -17 -63 -20 -94 -4 -30 -10 -50 -14 -44 -4 6 -16 -24 -28 -67 -11
-43 -23 -87 -27 -98 -5 -14 -4 -16 3 -7 7 11 10 10 16 -3 9 -25 7 -42 -4 -25
-11 18 -15 14 -33 -31 -8 -18 -12 -42 -8 -53 7 -17 8 -17 23 -2 9 8 14 24 11
35 -3 10 0 22 6 25 7 4 11 -1 11 -13 0 -12 4 -21 9 -21 15 0 18 77 4 96 -7 10
-13 28 -13 41 0 18 5 23 28 23 26 0 27 -3 30 -52 2 -51 17 -83 33 -72 5 3 9
-3 9 -13 0 -15 2 -16 11 -3 7 11 8 5 3 -23 -4 -24 -2 -43 7 -53 10 -13 10 -17
0 -23 -9 -6 -11 -25 -7 -67 4 -33 6 -83 6 -113 -1 -65 27 -141 53 -141 10 0
17 -8 17 -20 0 -17 7 -20 40 -20 l40 0 0 -75 c0 -41 4 -75 10 -75 26 0 57 23
53 40 -3 10 3 24 14 31 24 18 39 47 53 98 6 22 15 41 20 41 6 0 10 14 10 30 0
17 4 30 9 30 5 0 19 42 31 93 13 50 27 99 31 108 5 9 9 45 10 80 1 35 8 78 15
96 8 17 19 78 24 135 16 164 16 161 59 154 20 -4 70 -9 111 -11 136 -8 133 -7
118 -17 -8 -6 1 -8 30 -6 23 2 42 0 42 -3 0 -4 23 -10 51 -14 49 -7 109 -48
109 -75 0 -5 7 -10 15 -10 9 0 21 -11 27 -25 6 -14 17 -25 25 -25 7 0 13 -11
13 -26 0 -14 4 -23 10 -19 6 4 10 -14 10 -47 1 -43 3 -50 12 -34 16 28 3 156
-21 212 -12 26 -19 49 -17 51 2 2 18 -13 35 -34 41 -49 67 -134 77 -253 6 -71
9 -87 15 -65 6 26 7 24 8 -16 1 -32 6 -49 16 -53 8 -3 15 -12 15 -21 0 -8 5
-15 11 -15 17 0 3 252 -16 296 -13 33 -70 112 -90 126 -5 4 -6 10 -2 15 5 4
11 3 15 -3 4 -6 16 -14 27 -18 34 -12 114 -70 120 -86 3 -8 24 -26 47 -39 24
-13 69 -47 100 -74 44 -39 66 -51 97 -54 25 -2 41 0 41 6 0 6 9 11 20 11 11 0
20 -4 20 -9 0 -5 71 -9 162 -8 120 1 163 -2 166 -11 2 -6 17 -12 32 -12 38 0
50 -20 13 -21 -24 0 -25 -1 -8 -8 11 -5 24 -6 28 -4 5 3 16 -2 25 -10 17 -15
61 -32 73 -29 4 1 10 -18 13 -41 8 -54 -8 -94 -58 -147 -55 -58 -16 -53 41 5
41 40 45 50 46 92 1 79 -45 148 -90 137 -22 -6 -24 -4 -18 15 5 17 2 21 -14
21 -12 0 -21 4 -21 10 0 5 -15 11 -32 14 -18 3 -89 15 -157 26 -68 11 -140 20
-160 20 -27 0 -32 3 -21 10 10 6 2 7 -25 3 -22 -3 -45 -10 -51 -14 -7 -6 -18
-1 -29 11 -10 11 -26 20 -35 20 -10 0 -23 7 -30 15 -10 12 -10 15 1 15 8 0 -2
10 -21 21 -19 12 -41 31 -49 41 -7 11 -27 28 -45 39 -17 10 -26 19 -19 19 6 0
13 7 15 16 2 10 15 18 32 20 41 4 43 11 14 42 -14 15 -32 44 -39 66 -8 21 -21
40 -29 43 -26 7 -115 56 -122 67 -13 19 -9 64 7 80 8 8 15 18 15 21 0 18 45
61 72 70 34 11 50 35 24 35 -9 0 -16 5 -16 10 0 6 7 10 16 10 8 0 12 5 9 10
-4 6 -15 8 -26 5 -32 -10 -22 21 11 35 19 8 49 10 90 5 33 -4 60 -4 60 1 0 18
-52 72 -75 78 -15 4 -25 13 -25 24 0 9 -13 30 -29 45 -16 15 -31 37 -33 50 -2
16 -10 22 -29 23 -34 1 -49 11 -49 33 0 10 -7 24 -16 31 -8 7 -14 23 -13 34 0
12 0 23 -1 26 -4 8 -11 98 -14 177 -4 72 -3 73 20 67 15 -4 24 -2 24 5 0 6 -4
11 -8 11 -18 0 -70 156 -56 169 2 3 21 -4 42 -14 20 -11 41 -21 45 -23 4 -2
-4 8 -18 23 -14 16 -25 34 -25 41 0 7 -7 17 -15 21 -14 8 -29 61 -60 208 -8
44 -23 114 -32 155 -20 96 -27 200 -13 200 6 0 10 -32 10 -82 0 -58 3 -79 10
-68 6 8 10 51 9 95 -1 62 -7 92 -26 133 -13 29 -23 58 -20 65 2 6 0 26 -5 42
-5 17 -11 42 -14 58 -2 15 -10 40 -18 55 -22 42 -50 218 -47 294 1 39 -2 69
-8 73 -6 3 -11 17 -11 30 0 13 -5 25 -11 27 -6 2 -28 64 -50 138 -21 73 -52
161 -68 194 -15 34 -32 78 -35 99 -4 21 -14 41 -22 44 -8 3 -14 18 -14 36 0
26 -72 193 -90 207 -3 3 -19 34 -34 70 -16 36 -36 79 -46 95 -10 17 -29 52
-44 78 -14 26 -31 53 -36 60 -6 7 -30 37 -53 68 -123 165 -205 267 -231 289
-17 14 -38 32 -46 40 -36 34 -100 81 -127 92 -15 7 -33 18 -40 24 -6 6 -42 24
-80 40 -37 16 -69 32 -71 36 -2 5 -9 8 -15 8 -7 0 -45 14 -85 30 -65 26 -82
29 -150 25 -85 -5 -196 -20 -210 -29 -5 -3 -23 0 -40 6 -25 10 -34 9 -56 -5
-29 -19 -56 -21 -103 -7 -18 6 -48 15 -67 20 -19 6 -74 12 -123 15 -80 3 -90
1 -101 -16z m-186 -85 c-22 -16 -46 -19 -46 -5 0 10 52 31 60 24 3 -3 -4 -11
-14 -19z m-261 -1774 c4 -6 -8 -10 -29 -10 -20 0 -36 5 -36 10 0 6 13 10 29
10 17 0 33 -4 36 -10z m-85 -10 c0 -5 -4 -10 -10 -10 -5 0 -10 5 -10 10 0 6 5
10 10 10 6 0 10 -4 10 -10z m-170 -60 c9 -17 8 -20 -11 -20 -18 0 -20 -4 -15
-27 5 -22 4 -24 -4 -11 -11 18 -3 78 11 78 5 0 13 -9 19 -20z m2090 -470 c0
-13 -7 -20 -20 -20 -13 0 -20 7 -20 20 0 13 7 20 20 20 13 0 20 -7 20 -20z
m-54 -45 c4 -8 10 -13 14 -10 15 9 19 -9 6 -25 -37 -47 -113 -89 -100 -56 3 9
9 14 13 12 4 -3 6 13 5 34 -1 29 1 37 12 33 8 -3 17 2 20 11 8 20 23 21 30 1z
m-2906 -334 c0 -12 -20 -25 -27 -18 -7 7 6 27 18 27 5 0 9 -4 9 -9z m1085
-1220 c-5 -70 -29 -188 -40 -200 -16 -15 -13 22 11 143 15 75 29 136 31 136 3
0 2 -35 -2 -79z m2730 -140 c3 -5 1 -12 -5 -16 -5 -3 -10 1 -10 9 0 18 6 21
15 7z m-1152 -63 c6 -4 8 -10 4 -15 -11 -10 -27 17 -26 42 l1 20 5 -20 c3 -11
10 -23 16 -27z m-66 -150 c-3 -7 -5 -2 -5 12 0 14 2 19 5 13 2 -7 2 -19 0 -25z
m-220 -340 c-3 -8 -6 -5 -6 6 -1 11 2 17 5 13 3 -3 4 -12 1 -19z m-11 -116
c-13 -12 -17 8 -9 44 l8 39 3 -39 c2 -21 1 -41 -2 -44z m-1961 -612 c-11 -5
-29 -9 -40 -9 l-20 0 20 9 c11 5 29 9 40 9 l20 0 -20 -9z m-95 -94 c0 -19 -26
-40 -35 -26 -3 5 -1 10 5 10 7 0 10 7 6 15 -3 9 0 15 9 15 8 0 15 -6 15 -14z
m140 -26 c32 -22 64 -40 69 -40 6 0 12 -6 12 -12 4 -41 -4 -142 -16 -198 -8
-36 -22 -112 -31 -170 -16 -104 -28 -135 -42 -115 -4 6 -36 28 -72 49 -89 53
-200 128 -200 135 0 3 25 44 55 90 30 46 56 96 57 110 1 14 2 37 3 51 1 36 41
108 65 115 11 3 20 11 20 16 0 17 21 9 80 -31z m-180 -62 c-3 -26 -11 -42 -18
-40 -7 1 -12 -5 -12 -13 0 -8 -2 -15 -4 -15 -55 0 -26 80 40 110 0 0 -2 -19
-6 -42z m-129 -265 c-8 -15 -10 -15 -11 -2 0 17 10 32 18 25 2 -3 -1 -13 -7
-23z m-230 -161 c-9 -35 -20 -60 -23 -56 -4 3 -14 -11 -23 -31 -8 -21 -18 -35
-21 -32 -4 3 13 47 36 97 24 49 44 89 46 87 1 -1 -5 -30 -15 -65z m-642 -114
c0 -86 -15 -196 -18 -132 -1 24 -5 31 -18 30 -13 -1 -19 8 -21 29 -2 17 -10
38 -19 47 -11 12 -12 21 -4 36 12 23 48 35 55 18 2 -6 5 4 5 22 1 17 6 32 11
32 6 0 10 -34 9 -82z m364 65 c5 -3 6 -16 3 -29 -4 -13 -3 -24 1 -23 23 4 23
-3 -2 -23 -24 -18 -26 -26 -21 -59 3 -21 2 -40 -3 -43 -4 -3 -14 -33 -22 -66
-7 -33 -16 -60 -19 -60 -3 0 -45 37 -93 81 -90 84 -157 166 -157 191 0 29 272
56 313 31z m414 -183 c3 -41 2 -72 -1 -69 -8 8 -18 82 -17 118 1 17 -3 22 -14
17 -13 -5 -15 1 -9 32 4 20 9 42 13 47 8 14 21 -55 28 -145z m-529 -117 l71
-68 -11 -47 c-6 -27 -15 -48 -18 -48 -4 0 -39 29 -77 65 l-70 64 10 51 c5 27
13 50 16 50 4 0 39 -30 79 -67z m779 -345 c-4 -13 -9 -43 -12 -68 -10 -72 -15
-91 -23 -86 -4 2 -3 43 2 90 7 64 13 86 24 86 10 0 12 -7 9 -22z m-797 -249
c0 -5 -4 -9 -10 -9 -5 0 -10 7 -10 16 0 8 5 12 10 9 6 -3 10 -10 10 -16z m70
-349 c55 -56 100 -108 100 -116 0 -20 -11 -17 -35 9 -11 12 -32 32 -47 43 -44
34 -198 225 -198 246 0 14 11 6 40 -31 22 -27 85 -95 140 -151z m42 73 c1 -5
20 -23 41 -40 35 -31 36 -33 14 -33 -16 0 -40 17 -71 50 -25 28 -46 53 -46 56
0 7 58 -24 62 -33z m-169 -359 c45 -45 120 -78 163 -71 19 3 34 2 34 -3 0 -14
-42 -40 -64 -40 -35 0 -126 33 -126 46 0 7 -3 14 -7 16 -16 6 -60 85 -81 141
-32 85 -26 91 13 13 19 -38 50 -84 68 -102z m49 125 c5 -39 47 -94 86 -115 19
-10 29 -20 23 -22 -19 -6 -86 38 -104 69 -9 17 -17 47 -17 66 0 41 7 41 12 2z
m575 -121 c-3 -8 -6 -5 -6 6 -1 11 2 17 5 13 3 -3 4 -12 1 -19z m-10 -50 c-3
-8 -6 -5 -6 6 -1 11 2 17 5 13 3 -3 4 -12 1 -19z m-10 -55 c-3 -10 -5 -4 -5
12 0 17 2 24 5 18 2 -7 2 -21 0 -30z m-692 -236 c78 -97 89 -108 126 -133 45
-28 113 -109 104 -124 -18 -29 -285 259 -285 308 0 9 2 13 4 11 2 -2 25 -30
51 -62z m175 -72 c24 -25 50 -45 58 -45 7 0 10 -4 7 -10 -12 -20 -37 -9 -95
45 -51 46 -56 55 -37 55 14 0 40 -18 67 -45z m-1025 -75 c3 -5 1 -10 -4 -10
-6 0 -11 5 -11 10 0 6 2 10 4 10 3 0 8 -4 11 -10z m65 -80 c0 -5 -4 -10 -10
-10 -5 0 -10 5 -10 10 0 6 5 10 10 10 6 0 10 -4 10 -10z m930 -85 c24 -25 50
-45 58 -45 7 0 10 -4 7 -10 -12 -19 -35 -9 -82 35 -25 25 -50 45 -55 45 -4 0
-8 5 -8 10 0 24 39 7 80 -35z m18 -125 c30 -39 42 -80 24 -80 -5 0 -13 9 -18
19 -18 38 -96 112 -112 106 -12 -4 -13 -3 -3 9 19 22 69 -3 109 -54z m-49
-146 c61 -72 87 -122 72 -137 -7 -7 -14 -1 -21 18 -6 16 -25 45 -43 65 -64 73
-77 90 -77 105 0 26 13 16 69 -51z m-89 19 c0 -1 -14 -10 -31 -18 -24 -13 -34
-14 -45 -4 -24 20 -16 26 31 25 25 -1 45 -2 45 -3z m35 -89 c14 -6 75 -85 75
-98 0 -3 -6 -6 -13 -6 -7 0 -24 18 -37 40 -14 22 -33 42 -42 45 -10 4 -18 11
-18 16 0 11 12 12 35 3z m-8 -220 c20 -45 23 -58 12 -65 -10 -6 -17 4 -27 34
-8 23 -18 46 -23 52 -12 12 -11 35 2 35 5 0 22 -25 36 -56z m-36 -89 c14 -33
17 -50 10 -63 -8 -15 -12 -12 -25 20 -16 36 -22 88 -10 88 3 0 14 -20 25 -45z
m-134 -11 c18 -14 40 -38 48 -54 17 -33 20 -126 5 -135 -6 -4 -10 10 -10 36 0
55 -38 119 -84 144 -20 11 -36 23 -36 27 0 17 45 7 77 -18z m0 -144 c11 -41 2
-106 -17 -123 -10 -10 -11 -7 -5 13 17 59 16 89 -4 135 -26 59 -26 64 -2 34
10 -14 23 -40 28 -59z m2 -152 c-12 -22 -47 -58 -57 -58 -5 0 14 24 46 58 6 7
12 18 12 24 0 6 3 9 6 6 3 -4 0 -17 -7 -30z m-80 -40 c1 -5 -3 -8 -9 -8 -5 0
-10 12 -9 28 0 24 1 25 9 7 5 -11 9 -23 9 -27z m-239 -312 c0 -26 -22 -76 -34
-76 -23 0 -24 11 -7 51 15 37 41 53 41 25z m-130 -72 c0 -8 -13 -29 -29 -46
-27 -29 -28 -33 -13 -45 12 -8 13 -12 4 -13 -9 0 -11 -7 -7 -20 4 -14 -2 -28
-21 -47 -20 -20 -28 -37 -27 -60 1 -24 -4 -34 -19 -39 -34 -10 -39 9 -18 66
11 30 20 68 20 83 0 20 14 45 48 82 50 57 62 65 62 39z m42 -59 c-30 -77 -57
-71 -31 6 15 44 30 62 41 51 5 -5 1 -29 -10 -57z m-202 -231 c0 -9 -6 -30 -14
-47 -8 -18 -24 -62 -36 -99 -18 -57 -50 -109 -50 -81 0 28 39 183 54 211 17
33 46 44 46 16z m-90 -110 c0 -19 -5 -44 -10 -54 -12 -22 -40 -16 -40 9 -1 9
-7 1 -16 -18 -8 -19 -17 -31 -21 -27 -4 3 6 33 22 66 20 41 34 60 47 60 14 0
18 -8 18 -36z m-126 -106 c-6 -20 -5 -21 10 -9 24 20 28 9 9 -29 -20 -42 -44
-70 -59 -70 -6 0 -16 -11 -22 -25 -6 -14 -16 -25 -22 -25 -5 0 -10 -7 -10 -15
0 -16 -17 -19 -44 -9 -18 7 -22 39 -6 49 6 3 10 14 10 24 0 22 35 55 49 47 6
-4 6 -17 -1 -37 -6 -16 -8 -33 -5 -36 9 -9 38 68 40 108 1 20 5 35 10 32 4 -2
7 1 7 6 0 6 9 11 21 11 17 0 19 -4 13 -22z m101 -5 c-12 -61 -16 -73 -25 -73
-14 0 -12 22 6 58 17 36 24 41 19 15z m-355 -87 c0 -18 -44 -50 -48 -37 -5 16
18 51 33 51 8 0 15 -6 15 -14z m80 -86 c25 -25 25 -31 0 -60 -11 -13 -31 -56
-43 -97 -13 -41 -34 -86 -46 -101 l-22 -27 6 25 c18 78 18 83 6 76 -20 -12
-61 3 -61 22 0 26 37 82 89 133 25 26 47 47 49 48 1 1 11 -8 22 -19z m-184
-118 c-8 -37 -21 -93 -27 -124 -7 -32 -14 -58 -17 -58 -3 0 -18 14 -34 32 -29
32 -32 46 -22 85 l6 23 19 -24 c11 -13 19 -29 19 -36 0 -28 19 4 25 43 9 59
38 153 43 138 2 -6 -3 -42 -12 -79z m243 -14 c-13 -26 -123 -179 -160 -224
-13 -15 -53 -60 -89 -99 -76 -81 -155 -186 -225 -300 -27 -44 -74 -116 -103
-160 -30 -44 -74 -122 -99 -174 -26 -51 -63 -112 -84 -135 -23 -24 -42 -57
-48 -81 -7 -33 -9 -35 -10 -13 l-1 28 -24 -21 c-14 -12 -22 -27 -20 -33 7 -17
-26 -55 -33 -38 -3 9 -18 0 -45 -27 -22 -23 -44 -41 -49 -41 -5 0 -9 -4 -9
-10 0 -5 5 -10 10 -10 6 0 10 -5 10 -12 0 -9 -3 -9 -12 0 -18 18 -41 15 -34
-4 5 -12 2 -15 -13 -11 -10 2 -25 1 -32 -4 -12 -8 -11 -11 1 -20 13 -9 12 -10
-3 -5 -11 4 -45 -11 -90 -38 -78 -47 -75 -43 -98 -170 -10 -60 -34 -139 -63
-208 -9 -21 -16 -41 -16 -46 0 -5 28 -15 63 -21 34 -6 105 -20 157 -31 255
-52 311 -61 383 -67 55 -4 77 -3 77 6 0 6 7 11 15 11 9 0 27 7 40 16 23 15 25
15 25 -1 0 -10 -10 -27 -23 -39 -21 -20 -30 -21 -122 -15 -55 4 -156 19 -225
34 -137 28 -299 60 -400 77 -57 10 -105 28 -72 28 25 0 71 139 97 292 18 102
28 120 90 151 17 8 59 36 94 62 50 37 61 49 50 57 -10 7 -8 8 8 5 27 -6 33 1
23 28 -9 26 26 58 55 51 16 -4 31 4 55 29 19 19 31 38 27 41 -9 9 -45 -23 -52
-46 -5 -15 -11 -16 -43 -8 -76 20 -88 20 -106 2 -17 -17 -18 -17 -14 2 2 13
16 22 43 27 22 5 53 15 70 24 26 13 30 13 41 -1 10 -14 13 -15 24 -1 10 12 10
15 -3 15 -16 0 -31 26 -18 34 15 9 52 -6 47 -20 -3 -7 4 -16 14 -19 14 -5 30
5 60 36 22 23 40 44 40 46 0 10 -23 0 -41 -18 -15 -15 -24 -18 -29 -10 -4 7
-13 11 -20 9 -7 -2 -15 3 -18 11 -4 11 2 13 28 7 19 -3 38 -1 46 5 7 6 21 9
31 7 11 -2 31 11 53 36 31 35 51 55 82 83 5 4 32 47 61 95 192 320 283 450
406 584 29 31 87 100 129 153 88 110 117 138 91 89z m-169 -98 c-5 -10 -10
-30 -10 -44 0 -30 -18 -44 -26 -21 -8 19 25 97 37 89 5 -3 5 -14 -1 -24z
m-3150 -521 c0 -6 -4 -7 -10 -4 -5 3 -10 11 -10 16 0 6 5 7 10 4 6 -3 10 -11
10 -16z m30 -19 c0 -5 -5 -10 -11 -10 -5 0 -7 5 -4 10 3 6 8 10 11 10 2 0 4
-4 4 -10z m2504 -249 c4 -5 -3 -7 -14 -4 -23 6 -26 13 -6 13 8 0 17 -4 20 -9z
m-259 -201 c-3 -5 -10 -10 -16 -10 -5 0 -9 5 -9 10 0 6 7 10 16 10 8 0 12 -4
9 -10z m145 -190 c0 -5 -8 -10 -17 -10 -15 0 -16 2 -3 10 19 12 20 12 20 0z
m-210 -30 c0 -9 -31 -23 -37 -17 -2 2 -1 11 3 20 5 15 34 13 34 -3z m-2086 -9
c3 -5 -1 -11 -9 -15 -9 -3 -15 0 -15 9 0 16 16 20 24 6z m-341 -15 c3 -8 3
-17 0 -20 -9 -9 -34 15 -27 25 8 13 21 11 27 -5z m2157 -46 c0 -11 -4 -20 -9
-20 -5 0 -11 9 -14 20 -3 13 0 20 9 20 8 0 14 -9 14 -20z m110 11 c0 -19 -25
-29 -37 -16 -10 11 -10 15 0 18 20 9 37 8 37 -2z m-1923 -7 c-3 -3 -12 -4 -19
-1 -8 3 -5 6 6 6 11 1 17 -2 13 -5z m-267 -24 c0 -5 -11 -10 -25 -10 -14 0
-25 5 -25 10 0 6 11 10 25 10 14 0 25 -4 25 -10z m206 -1 c10 -17 -13 -36 -27
-22 -12 12 -4 33 11 33 5 0 12 -5 16 -11z m-406 -13 c0 -8 -7 -17 -16 -20 -23
-9 -24 -8 -24 14 0 13 7 20 20 20 11 0 20 -6 20 -14z m540 -17 c0 -14 -17 -10
-23 5 -4 10 -1 13 9 9 7 -3 14 -9 14 -14z m-737 -10 c-6 -6 -19 -9 -29 -6 -17
3 -16 5 6 14 28 12 39 8 23 -8z m131 12 c31 -2 11 -12 -32 -16 -27 -2 -42 1
-46 10 -3 10 4 12 27 11 18 -2 41 -4 51 -5z m186 -6 c0 -9 -9 -15 -22 -15 -22
1 -23 1 -4 15 25 19 26 19 26 0z m-449 -36 c14 -14 18 -24 11 -31 -15 -15 -52
9 -52 32 0 26 15 25 41 -1z m374 11 c3 -5 17 -10 31 -10 23 0 33 -14 17 -23
-16 -8 -73 14 -73 28 0 17 16 20 25 5z m-270 -10 c3 -5 -3 -10 -14 -10 -12 0
-21 5 -21 10 0 6 6 10 14 10 8 0 18 -4 21 -10z m1145 -36 c0 -8 -4 -12 -10 -9
-5 3 -10 10 -10 16 0 5 5 9 10 9 6 0 10 -7 10 -16z m-1346 -26 c6 -5 2 -8 -11
-8 -17 0 -20 4 -15 22 4 16 7 18 10 8 3 -8 10 -18 16 -22z m2226 22 c0 -5 10
-10 23 -10 41 0 46 -14 11 -32 -29 -15 -34 -15 -35 -3 -2 24 -4 29 -12 43 -5
7 -4 12 2 12 6 0 11 -4 11 -10z m-945 -10 c3 -5 1 -10 -4 -10 -6 0 -11 5 -11
10 0 6 2 10 4 10 3 0 8 -4 11 -10z m-95 -10 c0 -5 -6 -10 -14 -10 -8 0 -18 5
-21 10 -3 6 3 10 14 10 12 0 21 -4 21 -10z m260 -4 c0 -3 -4 -8 -10 -11 -5 -3
-10 -1 -10 4 0 6 5 11 10 11 6 0 10 -2 10 -4z m740 -22 c0 -2 -9 0 -20 6 -11
6 -20 13 -20 16 0 2 9 0 20 -6 11 -6 20 -13 20 -16z m-120 6 c0 -5 -9 -10 -21
-10 -11 0 -17 5 -14 10 3 6 13 10 21 10 8 0 14 -4 14 -10z m-2160 -34 c0 -8 6
-17 13 -19 7 -3 6 -6 -5 -6 -9 -1 -20 4 -23 9 -3 6 -16 10 -28 10 -18 0 -19 2
-7 10 22 14 50 12 50 -4z m2489 -7 c-16 -10 -23 -4 -14 10 3 6 11 8 17 5 6 -4
5 -9 -3 -15z m-262 -26 c-9 -9 -20 -13 -24 -9 -4 4 1 14 11 22 25 18 35 8 13
-13z m-2257 -9 c0 -17 -22 -14 -28 4 -2 7 3 12 12 12 9 0 16 -7 16 -16z m2493
9 c-7 -2 -19 -2 -25 0 -7 3 -2 5 12 5 14 0 19 -2 13 -5z m-2942 -146 c-1 -12
-15 -9 -19 4 -3 6 1 10 8 8 6 -3 11 -8 11 -12z m184 -17 c3 -5 -3 -10 -14 -10
-12 0 -21 5 -21 10 0 6 6 10 14 10 8 0 18 -4 21 -10z m-345 -60 c0 -5 -2 -10
-4 -10 -3 0 -8 5 -11 10 -3 6 -1 10 4 10 6 0 11 -4 11 -10z m-95 -60 c3 -5 -3
-10 -14 -10 -12 0 -21 5 -21 10 0 6 6 10 14 10 8 0 18 -4 21 -10z m3600 -21
c14 -6 9 -7 -15 -3 -19 4 -44 11 -55 15 -14 6 -9 7 15 3 19 -4 44 -11 55 -15z
m105 -19 c11 -7 5 -8 -20 -4 -43 8 -51 14 -19 14 13 0 31 -5 39 -10z"/>
<path d="M6003 8770 c0 -25 2 -35 4 -22 2 12 2 32 0 45 -2 12 -4 2 -4 -23z"/>
<path d="M4906 4537 c-10 -22 -15 -44 -13 -50 3 -7 12 5 21 26 10 22 15 44 13
50 -3 7 -12 -5 -21 -26z"/>
<path d="M4025 3260 c-10 -11 -15 -23 -12 -27 8 -7 47 25 47 39 0 14 -16 9
-35 -12z"/>
<path d="M13512 13728 c-16 -16 -15 -35 1 -41 23 -9 40 8 32 32 -7 24 -16 26
-33 9z"/>
<path d="M8591 13313 c-33 -17 -39 -23 -22 -23 12 0 32 -5 43 -11 13 -7 23 -7
27 -2 3 6 17 13 31 16 14 3 40 10 59 14 19 5 36 14 39 21 8 24 -126 13 -177
-15z"/>
<path d="M7760 13302 c0 -16 8 -21 40 -26 22 -3 58 -9 80 -12 22 -3 40 -9 40
-14 0 -12 91 -23 102 -12 5 5 -12 22 -44 42 -46 28 -65 33 -135 38 -79 5 -83
4 -83 -16z"/>
<path d="M8810 13143 c0 -6 -15 -15 -32 -21 l-33 -11 34 5 c25 5 32 3 29 -7
-3 -8 -20 -14 -41 -15 -20 -1 -34 3 -31 7 3 5 0 9 -6 9 -15 0 -44 -29 -37 -36
8 -8 -25 -44 -40 -44 -7 0 -13 -7 -13 -15 0 -9 -9 -26 -20 -38 -24 -25 -22
-50 3 -55 13 -3 15 1 11 15 -6 16 -5 16 8 -1 9 -12 21 -17 32 -13 14 6 15 10
4 27 -12 19 -9 24 20 51 37 33 62 38 62 10 0 -10 9 -30 21 -45 19 -24 27 -27
72 -24 46 3 54 7 72 35 22 36 55 44 55 14 0 -22 57 -33 132 -24 62 7 68 18 21
34 -52 16 -56 19 -43 34 9 11 3 19 -27 38 -37 23 -96 47 -116 47 -14 0 65 -56
91 -64 12 -4 22 -12 22 -17 0 -11 -17 -12 -22 -1 -5 11 -76 42 -96 42 -10 0
-23 5 -29 11 -7 7 -29 12 -49 13 -28 1 -38 6 -40 19 -3 21 -14 36 -14 20z m47
-99 c-3 -3 -12 -4 -19 -1 -8 3 -5 6 6 6 11 1 17 -2 13 -5z"/>
<path d="M8898 13123 c6 -2 18 -2 25 0 6 3 1 5 -13 5 -14 0 -19 -2 -12 -5z"/>
<path d="M6857 13082 c-3 -4 3 -17 13 -30 22 -26 36 -12 18 18 -13 21 -24 25
-31 12z"/>
<path d="M2300 12820 c-13 -8 -12 -10 3 -10 9 0 17 5 17 10 0 12 -1 12 -20 0z"/>
<path d="M2480 12820 c0 -5 15 -10 33 -10 24 0 28 3 17 10 -20 13 -50 13 -50
0z"/>
<path d="M353 12758 c-18 -6 -33 -15 -33 -19 0 -5 -7 -9 -15 -9 -8 0 -15 -3
-15 -6 0 -14 37 -33 65 -34 29 0 124 39 125 51 0 4 -16 10 -36 13 -19 4 -41 9
-47 11 -7 1 -27 -2 -44 -7z"/>
<path d="M0 12690 l0 -41 40 32 c22 18 40 36 40 41 0 4 -18 8 -40 8 l-40 0 0
-40z"/>
<path d="M8130 12345 c-10 -12 -10 -15 1 -15 10 -1 9 -4 -3 -14 -32 -24 -27
-27 104 -60 70 -19 91 -21 114 -11 32 13 25 19 -28 29 -20 4 -62 24 -95 46
-64 44 -75 47 -93 25z"/>
<path d="M8404 12336 c-34 -15 -51 -43 -35 -59 6 -6 22 -4 45 7 26 12 49 15
83 11 49 -7 103 6 103 25 0 6 -9 6 -24 0 -19 -7 -30 -4 -49 11 -29 22 -78 24
-123 5z"/>
<path d="M7940 12065 c0 -17 23 -45 37 -45 9 0 21 -7 27 -16 16 -21 68 -31
231 -45 121 -11 155 -10 250 4 61 9 146 19 190 23 79 6 185 42 185 63 0 6 -40
9 -100 8 -80 -2 -99 -5 -95 -16 4 -10 -4 -12 -38 -7 -96 15 -171 15 -204 1
-28 -12 -54 -12 -146 -4 -61 6 -114 14 -117 17 -3 4 -42 8 -86 8 -45 1 -94 4
-108 8 -14 3 -26 4 -26 1z"/>
<path d="M6631 12024 c0 -11 3 -14 6 -6 3 7 2 16 -1 19 -3 4 -6 -2 -5 -13z"/>
<path d="M8135 11873 c-14 -13 -13 -17 7 -32 50 -38 178 -58 178 -28 0 8 10
19 23 25 19 9 16 11 -26 11 -27 1 -58 6 -70 13 -45 25 -94 30 -112 11z"/>
<path d="M3325 11380 l-30 -6 29 -7 c29 -8 41 -5 35 10 -2 5 -17 6 -34 3z"/>
<path d="M1288 11253 c6 -2 18 -2 25 0 6 3 1 5 -13 5 -14 0 -19 -2 -12 -5z"/>
<path d="M720 11230 c0 -5 -10 -11 -22 -13 -14 -3 -9 -5 15 -6 37 -1 50 12 22
23 -8 3 -15 1 -15 -4z"/>
<path d="M610 11216 c0 -2 7 -6 15 -10 8 -3 15 -1 15 4 0 6 -7 10 -15 10 -8 0
-15 -2 -15 -4z"/>
<path d="M8278 11123 c7 -3 16 -2 19 1 4 3 -2 6 -13 5 -11 0 -14 -3 -6 -6z"/>
<path d="M8080 11058 c0 -9 5 -20 10 -23 13 -8 13 5 0 25 -8 13 -10 13 -10 -2z"/>
<path d="M8000 11030 c0 -5 5 -10 11 -10 5 0 7 5 4 10 -3 6 -8 10 -11 10 -2 0
-4 -4 -4 -10z"/>
<path d="M7980 10985 c0 -8 5 -15 10 -15 6 0 10 7 10 15 0 8 -4 15 -10 15 -5
0 -10 -7 -10 -15z"/>
<path d="M9265 10990 c3 -5 8 -10 11 -10 2 0 4 5 4 10 0 6 -5 10 -11 10 -5 0
-7 -4 -4 -10z"/>
<path d="M9201 10934 c0 -11 3 -14 6 -6 3 7 2 16 -1 19 -3 4 -6 -2 -5 -13z"/>
<path d="M8290 10902 c0 -4 -16 -8 -35 -9 -19 -1 -41 -8 -50 -16 -8 -9 -25
-19 -38 -24 -18 -6 -15 -8 23 -13 44 -6 76 5 108 36 15 15 16 34 2 34 -5 0
-10 -4 -10 -8z"/>
<path d="M10840 10680 c0 -5 5 -10 10 -10 6 0 10 5 10 10 0 6 -4 10 -10 10 -5
0 -10 -4 -10 -10z"/>
<path d="M10790 10643 c0 -15 18 -35 23 -27 3 5 -1 15 -9 22 -8 7 -14 9 -14 5z"/>
<path d="M10160 10555 c0 -8 -17 -19 -40 -26 -32 -10 -40 -17 -40 -35 0 -13
-8 -28 -19 -33 -25 -14 -61 -76 -61 -107 0 -13 -4 -24 -8 -24 -5 0 -14 -19
-21 -42 -7 -24 -21 -62 -32 -86 -10 -23 -19 -58 -19 -77 0 -19 -4 -35 -8 -35
-4 0 -16 -24 -26 -52 -27 -80 -49 -132 -64 -146 -7 -8 -19 -27 -27 -43 -9 -16
-20 -29 -25 -29 -6 0 -10 -17 -10 -38 0 -26 -6 -41 -20 -50 -11 -7 -20 -17
-20 -22 0 -10 -22 -39 -51 -69 -9 -9 -23 -29 -32 -46 -40 -78 -103 -114 -138
-77 -10 12 -19 25 -19 29 0 4 -15 33 -34 64 -18 30 -41 78 -50 107 -10 28 -20
52 -24 54 -9 4 -52 131 -52 154 0 11 -9 34 -20 52 -11 18 -20 44 -20 57 0 18
-7 26 -25 31 -14 3 -25 10 -25 15 0 5 -8 9 -19 9 -26 0 -37 -48 -91 -415 -12
-77 -34 -211 -50 -298 l-30 -158 19 -38 c11 -20 33 -52 50 -70 17 -18 31 -38
31 -43 0 -6 14 -24 31 -41 28 -26 32 -37 33 -86 l1 -56 -40 4 c-22 1 -43 8
-46 14 -4 6 -22 7 -44 4 -31 -5 -37 -3 -45 16 -8 21 -9 21 -9 -4 -1 -15 -7
-29 -14 -32 -10 -4 -13 2 -10 21 l3 27 -10 -24 c-11 -24 -45 -202 -80 -410
-11 -62 -22 -121 -25 -130 -6 -22 2 -32 58 -70 26 -17 47 -36 47 -40 0 -4 -40
-72 -89 -150 -98 -156 -92 -138 -131 -403 -11 -76 -33 -206 -50 -290 -40 -201
-50 -443 -26 -593 36 -219 41 -290 27 -378 -8 -45 -16 -120 -18 -167 -4 -88
-1 -110 55 -330 20 -77 33 -162 40 -256 8 -107 16 -154 32 -193 13 -28 26 -51
31 -51 5 0 6 -6 4 -12 -3 -7 4 -26 14 -42 18 -26 19 -27 25 -8 9 29 119 207
217 352 84 125 125 210 173 365 20 65 25 101 25 195 0 63 5 131 11 150 16 55
10 69 -10 25 l-19 -40 0 38 -1 37 -110 0 c-60 0 -110 -3 -110 -7 0 -5 -5 -57
-10 -117 -13 -135 -9 -161 31 -175 17 -6 28 -15 24 -21 -8 -12 -235 -14 -235
-1 0 5 11 16 23 24 23 15 24 21 30 194 3 98 13 224 22 281 9 57 14 110 11 118
-3 8 -19 20 -36 25 -46 16 -37 33 13 25 23 -4 92 -10 152 -13 104 -6 108 -7
78 -20 -54 -22 -66 -53 -90 -235 l-5 -38 110 0 110 0 12 83 c6 45 10 107 8
137 -3 52 -5 55 -30 58 -16 2 -28 7 -28 11 0 12 102 19 148 11 33 -5 37 -9 35
-35 -2 -36 17 4 104 215 30 74 77 185 103 245 140 321 198 453 256 582 94 208
155 366 219 563 57 179 153 466 185 555 32 88 112 367 131 455 10 47 18 108
18 135 -1 50 -1 50 -14 20 -11 -25 -13 -27 -18 -10 -3 13 -5 7 -6 -14 -1 -25
-5 -32 -15 -28 -10 4 -13 1 -9 -9 3 -8 2 -14 -3 -13 -20 3 -34 -2 -63 -27 -17
-14 -28 -30 -25 -35 3 -5 1 -8 -5 -7 -17 5 -71 -36 -71 -54 0 -11 -8 -18 -19
-18 -19 0 -61 -47 -61 -69 0 -6 -4 -11 -9 -11 -12 0 -71 -59 -71 -71 0 -5 -9
-9 -20 -9 -12 0 -20 -6 -18 -13 5 -20 -46 -74 -86 -94 -20 -9 -36 -23 -36 -30
0 -8 -8 -16 -17 -19 -10 -3 -27 -10 -38 -14 -40 -18 -98 -40 -102 -40 -3 0 -3
13 -1 29 3 21 1 28 -9 24 -15 -6 -17 9 -3 23 5 5 12 36 16 69 4 33 11 63 16
66 5 3 14 26 19 50 6 24 19 62 29 84 62 133 82 184 87 222 3 24 11 43 17 43 7
0 18 28 25 63 7 34 19 77 27 95 8 18 14 50 14 71 0 21 11 60 25 87 14 27 25
56 25 65 0 8 7 24 15 35 8 10 15 34 15 53 0 19 6 42 13 50 8 9 20 39 27 66 8
28 20 56 27 63 7 7 13 27 13 43 0 19 5 29 15 29 8 0 15 8 15 18 0 31 41 142
51 136 14 -8 23 26 10 39 -6 6 -11 19 -11 29 0 14 -8 18 -40 18 -28 0 -40 -4
-40 -15z m-617 -2112 c-13 -2 -33 -2 -45 0 -13 2 -3 4 22 4 25 0 35 -2 23 -4z
m-106 -9 c-3 -3 -12 -4 -19 -1 -8 3 -5 6 6 6 11 1 17 -2 13 -5z m210 0 c-3 -3
-12 -4 -19 -1 -8 3 -5 6 6 6 11 1 17 -2 13 -5z m-272 -14 c-27 -12 -43 -12
-25 0 8 5 22 9 30 9 10 0 8 -3 -5 -9z m338 3 c-7 -2 -19 -2 -25 0 -7 3 -2 5
12 5 14 0 19 -2 13 -5z m-414 -27 c-12 -12 -112 -66 -102 -55 15 15 84 57 97
58 5 1 7 -1 5 -3z m261 -31 c0 -19 -4 -35 -10 -35 -11 0 -14 53 -3 63 11 12
13 8 13 -28z m-106 -17 c3 -16 2 -28 -3 -28 -9 0 -21 33 -21 60 0 22 16 -1 24
-32z m69 30 c5 -18 -3 -48 -14 -48 -5 0 -9 14 -9 30 0 30 15 41 23 18z m112
-17 c0 -13 -5 -26 -11 -28 -7 -2 -10 6 -6 23 4 20 1 25 -9 22 -8 -3 -14 -15
-13 -27 1 -22 -10 -28 -21 -11 -3 5 -1 19 5 30 16 30 55 23 55 -9z m45 4 c-7
-8 -10 -21 -7 -29 4 -10 1 -13 -9 -9 -18 7 -18 18 2 37 20 20 30 21 14 1z
m-265 -21 c17 -27 13 -46 -6 -27 -6 6 -18 9 -25 6 -10 -4 -14 3 -14 21 0 34
23 34 45 0z m-70 -25 c4 -12 3 -25 -3 -31 -6 -6 -12 0 -16 16 -3 14 -14 26
-22 26 -15 0 -15 -3 1 -26 11 -17 14 -29 7 -36 -13 -13 -46 36 -38 57 9 24 63
19 71 -6z m309 -19 c67 -11 100 -35 111 -83 4 -18 9 -36 11 -42 14 -38 21
-107 17 -150 -11 -100 -79 -226 -149 -274 -16 -12 -39 -29 -50 -38 -111 -99
-178 -143 -217 -143 -44 0 -120 45 -171 101 -34 38 -52 69 -67 121 -56 185 15
358 192 466 74 45 204 62 323 42z m-441 -27 c-20 -8 -15 -40 7 -46 15 -4 20 0
20 14 0 10 5 19 10 19 15 0 12 -26 -5 -40 -31 -26 -82 13 -56 44 8 9 19 16 25
15 7 0 6 -2 -1 -6z m647 -42 c0 -10 -25 -21 -48 -21 -12 1 -10 5 8 15 29 17
40 18 40 6z m-780 -15 c0 -2 -8 -10 -17 -17 -16 -13 -17 -12 -4 4 13 16 21 21
21 13z m106 -10 c10 -8 17 -17 14 -19 -5 -5 -46 -10 -67 -8 -22 2 -14 21 8 21
11 0 17 5 14 10 -9 15 8 12 31 -4z m684 -16 c0 -5 -6 -10 -12 -10 -7 0 -24 -3
-38 -6 -24 -6 -25 -6 -5 9 22 18 55 22 55 7z m-700 -30 c0 -5 -2 -10 -4 -10
-3 0 -8 5 -11 10 -3 6 -1 10 4 10 6 0 11 -4 11 -10z m-20 -15 c18 -21 3 -55
-24 -55 -33 0 -50 23 -36 49 12 24 42 27 60 6z m709 -31 c-28 -16 -39 -17 -39
-6 0 12 43 31 54 24 5 -3 -2 -11 -15 -18z m-745 -45 c19 -18 0 -16 -29 3 -27
18 -28 19 -5 13 14 -4 29 -11 34 -16z m-16 -25 c12 -4 22 -10 22 -15 0 -14
-34 -10 -56 6 -21 16 -8 20 34 9z m751 -35 c-19 -12 -29 -11 -29 1 0 6 7 10
15 10 8 0 15 6 16 13 0 8 2 8 6 -2 3 -7 -1 -17 -8 -22z m-739 -11 c0 -4 -8
-12 -17 -17 -17 -10 -17 -10 0 -11 9 0 17 -5 17 -11 0 -7 -9 -9 -22 -5 -13 3
-29 6 -35 6 -7 0 -13 11 -13 25 0 22 4 25 35 22 19 -1 35 -5 35 -9z m730 -28
c0 -5 -2 -10 -4 -10 -3 0 -8 5 -11 10 -3 6 -1 10 4 10 6 0 11 -4 11 -10z
m-745 -50 c3 -4 -11 -10 -30 -12 -27 -3 -35 0 -35 12 0 13 7 15 30 12 17 -2
32 -8 35 -12z m724 -6 c-6 -7 -8 -18 -4 -24 3 -5 2 -10 -4 -10 -16 0 -24 22
-11 30 7 4 10 13 6 19 -5 7 -1 9 9 5 12 -5 13 -10 4 -20z m-744 -123 c5 -26 4
-32 -6 -29 -19 6 -34 51 -25 74 6 16 9 17 16 4 4 -8 11 -30 15 -49z m694 -5
c-7 -14 -16 -26 -20 -26 -4 0 -1 14 8 31 18 36 29 33 12 -5z m-765 -12 c3 -8
2 -12 -4 -9 -6 3 -10 10 -10 16 0 14 7 11 14 -7z m702 -29 c-14 -33 -14 -35 5
-35 33 0 21 -18 -16 -22 -23 -3 -32 -1 -25 6 6 6 10 19 10 30 0 17 26 56 37
56 2 0 -3 -16 -11 -35z m-570 -50 l-7 -34 -34 16 c-19 9 -36 22 -39 30 -7 17
5 17 30 -2 26 -20 31 -19 29 8 -1 12 0 28 3 36 10 26 24 -19 18 -54z m487 -5
c-3 -11 -9 -23 -14 -26 -20 -12 -7 -26 21 -22 19 3 29 1 27 -6 -2 -6 -21 -12
-42 -14 -32 -3 -37 -1 -31 13 3 9 6 23 6 30 0 12 26 45 35 45 2 0 1 -9 -2 -20z
m-423 -82 c5 -39 3 -44 -10 -38 -8 4 -27 13 -42 19 -16 6 -28 15 -28 21 0 7 6
8 19 0 34 -18 43 -12 36 21 -6 24 -4 30 6 27 8 -3 16 -25 19 -50z m69 -55 c6
-20 9 -39 7 -41 -10 -9 -68 -4 -79 8 -10 10 -4 11 31 6 40 -6 43 -5 28 9 -17
17 -23 70 -6 60 5 -3 14 -22 19 -42z m286 18 c-16 -14 -55 -23 -55 -12 0 8 16
14 55 20 6 0 6 -2 0 -8z m-177 -67 c-7 -15 -14 -21 -16 -15 -2 7 2 18 8 26 18
22 21 18 8 -11z m-31 -6 c-3 -8 -6 -5 -6 6 -1 11 2 17 5 13 3 -3 4 -12 1 -19z
m-558 -172 c-9 -8 -10 -7 -5 7 3 10 7 24 7 30 1 7 3 4 6 -7 3 -10 -1 -23 -8
-30z m50 32 c0 -7 -4 -22 -9 -33 -7 -16 -9 -14 -7 13 1 17 5 32 9 32 4 0 8 -6
7 -12z m60 -40 c1 -5 -3 -8 -9 -8 -5 0 -10 12 -9 28 0 24 1 25 9 7 5 -11 9
-23 9 -27z m81 -10 c0 -14 -12 -8 -30 14 -10 13 -16 27 -13 32 6 8 42 -32 43
-46z m479 -2 c-9 -8 -10 -7 -5 7 3 10 7 24 7 30 1 7 3 4 6 -7 3 -10 -1 -23 -8
-30z m61 0 c0 -26 -6 -18 -14 19 -5 22 -4 26 4 15 5 -8 10 -24 10 -34z m49
-10 c-9 -8 -10 -7 -5 7 3 10 7 24 7 30 1 7 3 4 6 -7 3 -10 -1 -23 -8 -30z
m-549 27 c0 -5 -5 -15 -10 -23 -8 -12 -10 -11 -10 8 0 12 5 22 10 22 6 0 10
-3 10 -7z m40 -24 c-14 -26 -18 -24 -12 6 2 14 8 22 13 19 5 -3 5 -14 -1 -25z
m31 -16 c-9 -16 -10 -16 -11 -1 0 9 3 25 7 35 7 16 8 17 11 1 2 -10 -1 -25 -7
-35z m75 11 c-3 -9 -6 -21 -6 -27 0 -7 -4 -7 -9 2 -10 16 -4 41 11 41 6 0 7
-7 4 -16z m84 -20 c0 -8 -4 -14 -10 -14 -5 0 -10 9 -10 21 0 11 5 17 10 14 6
-3 10 -13 10 -21z m37 4 c-3 -8 -6 -5 -6 6 -1 11 2 17 5 13 3 -3 4 -12 1 -19z
m-37 -1073 c0 -10 -10 -15 -30 -15 -16 0 -30 4 -30 9 0 8 10 12 53 20 4 0 7
-6 7 -14z"/>
<path d="M9423 8255 c-152 -47 -263 -189 -263 -336 0 -156 99 -300 217 -316
57 -8 91 14 203 126 145 147 188 238 177 376 -9 100 -23 134 -63 151 -43 18
-214 17 -271 -1z m157 -12 c0 -5 -9 -42 -20 -83 -11 -41 -26 -102 -35 -135 -9
-33 -29 -107 -45 -165 -16 -58 -36 -132 -43 -165 -12 -54 -17 -60 -41 -63 -33
-4 -102 30 -133 66 -52 60 -68 111 -67 212 0 112 17 157 85 227 46 48 76 66
154 94 50 18 145 26 145 12z m30 -143 c-8 -5 -24 -9 -35 -9 -16 1 -16 2 5 9
35 11 48 11 30 0z m40 -156 c0 -12 -34 -33 -52 -34 -27 0 -21 17 10 28 33 13
42 14 42 6z"/>
<path d="M9330 8096 c0 -20 5 -36 10 -36 6 0 10 9 10 20 0 21 2 21 132 5 20
-3 40 -1 43 5 3 5 5 10 3 11 -2 0 -37 4 -78 9 -41 5 -85 12 -97 15 -21 7 -23
4 -23 -29z"/>
<path d="M9235 7911 c-2 -5 5 -18 16 -30 25 -27 95 -26 113 1 5 9 8 19 6 21
-10 8 -130 15 -135 8z"/>
<path d="M9100 8137 c0 -20 23 -37 38 -28 10 6 10 10 0 18 -28 21 -38 24 -38
10z"/>
<path d="M9050 7990 c0 -5 5 -10 10 -10 6 0 10 5 10 10 0 6 -4 10 -10 10 -5 0
-10 -4 -10 -10z"/>
<path d="M9261 10360 c-1 -8 -4 -26 -8 -39 -4 -17 -3 -22 5 -17 7 4 12 0 12
-10 0 -10 2 -15 5 -13 2 3 1 25 -4 50 -5 24 -9 37 -10 29z"/>
<path d="M9232 10244 c-12 -43 -8 -74 10 -74 5 0 6 17 3 38 l-5 37 12 -32 c18
-44 32 -55 24 -18 -4 17 -8 39 -9 50 0 11 -6 25 -12 31 -9 9 -14 1 -23 -32z"/>
<path d="M10376 10194 c-18 -18 -18 -19 -2 -22 22 -5 29 2 24 24 -3 16 -4 16
-22 -2z"/>
<path d="M10640 10170 c0 -5 5 -10 11 -10 5 0 7 5 4 10 -3 6 -8 10 -11 10 -2
0 -4 -4 -4 -10z"/>
<path d="M9221 10114 c0 -11 3 -14 6 -6 3 7 2 16 -1 19 -3 4 -6 -2 -5 -13z"/>
<path d="M5320 10066 c0 -13 85 -56 112 -56 21 0 44 -9 62 -25 16 -14 34 -25
40 -25 6 0 -4 13 -21 29 -18 16 -33 33 -33 39 0 23 -45 42 -102 42 -32 0 -58
-2 -58 -4z"/>
<path d="M5200 10041 c0 -5 -9 -11 -20 -14 -11 -3 -19 -10 -18 -15 4 -13 -41
-52 -59 -52 -22 0 -74 -30 -69 -39 5 -7 -20 -23 -54 -34 -8 -3 3 -6 26 -6 22
-1 45 -6 52 -13 9 -9 12 -7 12 10 0 13 6 22 13 21 6 -1 21 1 32 6 43 17 145
66 145 70 0 2 -9 20 -21 39 -20 34 -39 47 -39 27z"/>
<path d="M225 10010 c-3 -5 -1 -10 4 -10 6 0 11 5 11 10 0 6 -2 10 -4 10 -3 0
-8 -4 -11 -10z"/>
<path d="M7760 9976 c0 -9 5 -16 10 -16 6 0 10 4 10 9 0 6 -4 13 -10 16 -5 3
-10 -1 -10 -9z"/>
<path d="M242 9893 c5 -25 28 -28 28 -4 0 12 -6 21 -16 21 -9 0 -14 -7 -12
-17z"/>
<path d="M156 9847 c9 -25 44 -32 62 -13 15 15 15 16 -3 16 -11 0 -30 3 -43 6
-17 5 -21 3 -16 -9z"/>
<path d="M5665 9840 c3 -5 8 -10 11 -10 2 0 4 5 4 10 0 6 -5 10 -11 10 -5 0
-7 -4 -4 -10z"/>
<path d="M10626 9825 c-8 -8 -18 -24 -21 -35 -3 -11 -11 -20 -16 -20 -5 0 -9
-11 -9 -25 0 -14 -5 -24 -12 -22 -7 1 -17 -23 -24 -63 -7 -36 -31 -137 -53
-225 -22 -88 -45 -189 -51 -225 -13 -72 -52 -211 -80 -280 -53 -130 -112 -287
-144 -385 -78 -241 -243 -645 -418 -1025 -11 -25 -53 -121 -93 -215 -40 -93
-85 -197 -100 -230 -138 -308 -184 -435 -220 -600 -14 -66 -32 -142 -41 -168
-8 -27 -13 -51 -10 -55 8 -7 8 -7 41 78 15 41 58 136 95 210 66 131 121 259
135 310 6 21 35 94 66 165 5 11 31 79 58 151 28 72 61 157 75 189 14 31 42 98
62 149 19 50 48 120 64 156 16 36 39 92 51 125 12 33 25 65 29 70 4 6 13 28
20 50 7 22 35 89 62 150 26 60 48 113 48 117 0 4 11 31 24 60 46 104 66 151
66 159 0 5 12 34 26 66 40 87 48 107 99 248 26 72 59 158 72 193 13 35 31 87
40 115 8 29 19 61 23 72 56 142 107 361 129 555 6 52 15 119 19 148 5 28 8 52
6 52 -1 0 -9 -7 -18 -15z"/>
<path d="M5024 9819 c-3 -6 -1 -16 5 -22 8 -8 11 -5 11 11 0 24 -5 28 -16 11z"/>
<path d="M5682 9790 c0 -14 2 -19 5 -12 2 6 2 18 0 25 -3 6 -5 1 -5 -13z"/>
<path d="M23 9778 c-18 -24 -23 -48 -9 -48 10 0 36 39 36 55 0 10 -18 5 -27
-7z"/>
<path d="M5400 9724 c-8 -3 -50 -17 -93 -31 -47 -15 -93 -24 -117 -21 -21 2
-36 0 -34 -4 3 -5 -5 -8 -17 -8 -12 0 -19 -3 -16 -7 4 -3 2 -12 -5 -20 -6 -7
-9 -16 -6 -19 3 -2 70 18 149 46 79 29 164 55 189 60 l45 8 -40 0 c-22 0 -47
-2 -55 -4z"/>
<path d="M4396 9711 c-4 -5 0 -12 6 -14 7 -3 1 -6 -14 -6 -15 -1 -30 -6 -33
-11 -4 -6 -19 -9 -33 -8 -26 3 -27 1 -30 -56 l-3 -59 32 7 c32 6 58 30 59 54
0 6 5 12 10 12 6 0 10 5 10 10 0 14 51 59 67 60 6 0 15 5 18 10 4 6 -11 10
-39 10 -25 0 -47 -4 -50 -9z"/>
<path d="M5601 9653 c18 -21 35 -40 37 -42 6 -10 31 25 35 49 2 14 2 20 0 14
-5 -15 -54 -13 -71 3 -32 30 -33 10 -1 -24z"/>
<path d="M1757 9598 c-3 -23 3 -51 20 -88 22 -50 25 -53 35 -35 6 11 16 23 22
27 7 4 6 15 -2 33 -7 14 -12 36 -12 48 0 53 -55 65 -63 15z"/>
<path d="M4700 9586 c-5 -13 -21 -30 -37 -38 -15 -8 -37 -19 -48 -25 -11 -6
-40 -17 -65 -24 -26 -7 -38 -14 -28 -16 9 -3 33 0 53 6 20 5 43 7 51 4 19 -7
18 -43 -1 -43 -18 0 -19 -12 -4 -27 9 -9 17 -7 31 7 17 16 114 40 161 40 9 0
19 5 22 10 14 23 -9 26 -72 9 -75 -21 -113 -24 -113 -9 0 16 51 44 99 55 36 8
46 15 46 30 0 14 -8 21 -27 23 -16 2 -28 8 -28 13 0 19 -31 8 -40 -15z"/>
<path d="M9025 9600 c3 -5 8 -10 11 -10 2 0 4 5 4 10 0 6 -5 10 -11 10 -5 0
-7 -4 -4 -10z"/>
<path d="M6055 9527 c-4 -35 -5 -73 -3 -83 2 -10 7 16 12 60 4 43 5 80 2 83
-2 2 -7 -24 -11 -60z"/>
<path d="M8959 9554 c0 -11 -2 -26 -5 -34 -12 -43 -34 -147 -34 -162 0 -10 7
-18 15 -18 8 0 15 -5 15 -11 0 -6 7 -9 15 -5 10 4 15 -1 15 -15 0 -11 4 -18 9
-15 4 3 13 47 20 98 6 51 14 104 17 118 4 24 4 25 -12 5 -15 -19 -16 -19 -9
13 4 19 3 32 -3 32 -6 0 -17 3 -26 6 -11 4 -16 0 -17 -12z"/>
<path d="M4348 9443 c7 -3 16 -2 19 1 4 3 -2 6 -13 5 -11 0 -14 -3 -6 -6z"/>
<path d="M4292 9418 c6 -18 28 -21 28 -4 0 9 -7 16 -16 16 -9 0 -14 -5 -12
-12z"/>
<path d="M7950 9390 c8 -5 11 -10 6 -10 -6 0 4 -15 20 -32 31 -34 64 -98 64
-123 0 -24 17 -17 24 10 4 14 0 39 -8 57 -18 39 -71 104 -59 73 6 -18 5 -18
-10 -6 -9 7 -15 17 -12 21 3 4 -2 11 -11 14 -24 9 -31 7 -14 -4z"/>
<path d="M5190 9370 c-8 -5 -10 -10 -5 -10 6 0 17 5 25 10 8 5 11 10 5 10 -5
0 -17 -5 -25 -10z"/>
<path d="M6043 9330 c0 -25 2 -35 4 -22 2 12 2 32 0 45 -2 12 -4 2 -4 -23z"/>
<path d="M8911 9276 c-6 -25 -11 -58 -11 -73 0 -16 -5 -34 -11 -40 -5 -5 -7
-22 -3 -37 12 -49 21 -21 27 84 2 25 6 60 11 78 4 17 6 32 3 32 -3 0 -10 -20
-16 -44z"/>
<path d="M4410 9300 c0 -5 5 -10 11 -10 5 0 7 5 4 10 -3 6 -8 10 -11 10 -2 0
-4 -4 -4 -10z"/>
<path d="M4920 9215 c0 -9 9 -15 21 -15 18 0 19 2 9 15 -7 8 -16 15 -21 15 -5
0 -9 -7 -9 -15z"/>
<path d="M4532 9151 c-19 -25 -20 -33 -9 -62 9 -23 9 -33 1 -36 -7 -2 -8 -20
-3 -55 6 -36 5 -56 -3 -66 -10 -11 -6 -19 21 -42 32 -25 34 -30 28 -71 -6 -40
-6 -42 8 -25 8 11 15 23 15 28 0 4 6 8 14 8 8 0 17 4 20 8 9 15 -24 154 -49
208 -20 42 -24 62 -19 94 4 22 5 40 2 40 -2 0 -14 -13 -26 -29z"/>
<path d="M5360 9160 c0 -5 6 -10 14 -10 8 0 18 5 21 10 3 6 -3 10 -14 10 -12
0 -21 -4 -21 -10z"/>
<path d="M4910 9092 c0 -39 23 -72 50 -72 9 0 11 10 6 38 -3 20 -6 45 -6 55 0
11 -8 17 -25 17 -22 0 -25 -4 -25 -38z"/>
<path d="M8921 9114 c0 -11 3 -14 6 -6 3 7 2 16 -1 19 -3 4 -6 -2 -5 -13z"/>
<path d="M8861 9045 c-7 -39 -19 -101 -27 -140 -7 -38 -21 -119 -29 -180 -9
-60 -25 -147 -36 -193 -11 -45 -18 -90 -14 -100 3 -9 21 -25 39 -34 l35 -17 5
27 c4 15 24 137 46 272 22 135 43 259 46 275 4 21 2 26 -4 16 -8 -11 -12 -10
-21 7 -6 11 -11 28 -11 37 0 9 -4 13 -10 10 -5 -3 -10 1 -10 9 0 10 9 16 22
16 19 0 20 1 6 13 -9 6 -18 21 -20 32 -2 11 -9 -12 -17 -50z m16 -67 c-3 -8
-6 -5 -6 6 -1 11 2 17 5 13 3 -3 4 -12 1 -19z"/>
<path d="M4990 9079 c0 -25 16 -49 32 -49 16 0 8 37 -12 55 -19 18 -20 17 -20
-6z"/>
<path d="M8932 9070 c0 -14 2 -19 5 -12 2 6 2 18 0 25 -3 6 -5 1 -5 -13z"/>
<path d="M3612 9026 c-14 -30 -9 -47 9 -29 6 6 9 21 7 34 -3 23 -3 23 -16 -5z"/>
<path d="M8902 9010 c0 -14 2 -19 5 -12 2 6 2 18 0 25 -3 6 -5 1 -5 -13z"/>
<path d="M2710 8785 c-11 -13 -10 -14 4 -9 9 3 16 10 16 15 0 13 -6 11 -20 -6z"/>
<path d="M2830 8700 c0 -5 5 -10 11 -10 5 0 7 5 4 10 -3 6 -8 10 -11 10 -2 0
-4 -4 -4 -10z"/>
<path d="M3097 8633 c-19 -19 17 -134 39 -125 5 2 10 -1 12 -7 2 -6 -2 -11
-10 -11 -12 0 40 -49 53 -50 14 0 -16 86 -43 129 -15 25 -28 51 -28 58 0 14
-12 17 -23 6z"/>
<path d="M1597 8623 c-11 -11 -8 -21 10 -27 17 -7 36 12 27 26 -6 10 -28 10
-37 1z"/>
<path d="M2950 8560 c0 -5 5 -10 10 -10 6 0 10 5 10 10 0 6 -4 10 -10 10 -5 0
-10 -4 -10 -10z"/>
<path d="M1874 8518 c3 -13 6 -30 7 -38 0 -8 7 -1 14 15 15 33 12 45 -12 45
-11 0 -14 -6 -9 -22z"/>
<path d="M2189 8509 c-22 -31 -19 -57 8 -66 10 -4 29 84 20 93 -3 3 -15 -9
-28 -27z"/>
<path d="M2320 8405 c-19 -22 -8 -25 13 -3 9 10 13 18 8 18 -5 0 -14 -7 -21
-15z"/>
<path d="M604 8369 c-46 -21 -55 -30 -74 -77 -16 -42 -7 -51 56 -60 47 -7 49
-9 52 -41 2 -23 -3 -40 -17 -55 -20 -21 -20 -22 -1 -34 27 -16 27 -62 1 -62
-31 0 -33 -15 -6 -44 16 -17 30 -24 38 -19 6 4 30 8 52 9 23 1 51 5 63 8 28 9
23 31 -19 93 -36 52 -38 83 -6 83 12 0 28 -10 36 -22 17 -27 26 -13 35 54 6
43 4 51 -29 100 -40 58 -59 73 -80 64 -8 -3 -17 -1 -20 3 -10 17 -41 17 -81 0z
m86 -49 c0 -5 -4 -10 -10 -10 -5 0 -10 5 -10 10 0 6 5 10 10 10 6 0 10 -4 10
-10z"/>
<path d="M4374 8358 c-31 -19 -56 -43 -64 -62 -7 -17 -15 -35 -18 -39 -2 -5 4
-7 14 -5 13 2 18 -2 16 -14 -5 -28 38 -22 74 10 26 22 33 37 38 85 3 31 3 57
-1 57 -5 -1 -31 -15 -59 -32z"/>
<path d="M3868 8349 c-21 -11 -38 -27 -38 -37 0 -9 -9 -37 -21 -61 -15 -35
-17 -46 -7 -53 24 -15 33 -8 63 54 16 34 43 75 59 90 l29 28 -24 0 c-13 -1
-41 -10 -61 -21z"/>
<path d="M4082 8310 c0 -14 2 -19 5 -12 2 6 2 18 0 25 -3 6 -5 1 -5 -13z"/>
<path d="M2425 8250 c3 -5 11 -10 16 -10 6 0 7 5 4 10 -3 6 -11 10 -16 10 -6
0 -7 -4 -4 -10z"/>
<path d="M3670 8220 c20 -13 40 -13 40 0 0 6 -12 10 -27 10 -22 0 -25 -2 -13
-10z"/>
<path d="M3410 8194 c-22 -19 -28 -30 -20 -39 5 -7 7 -26 4 -42 -7 -37 6 -48
33 -25 26 23 53 40 83 52 14 6 33 15 42 20 10 6 24 10 32 10 18 0 30 30 13 35
-6 2 -44 6 -84 9 -67 6 -74 4 -103 -20z m38 -38 c-7 -8 -15 -12 -17 -11 -5 6
10 25 20 25 5 0 4 -6 -3 -14z"/>
<path d="M4557 8204 c3 -7 9 -14 14 -14 14 0 10 17 -5 23 -10 4 -13 1 -9 -9z"/>
<path d="M4289 8206 c-10 -10 4 -116 15 -116 14 0 36 42 36 69 0 24 -38 59
-51 47z"/>
<path d="M3628 8173 c7 -3 16 -2 19 1 4 3 -2 6 -13 5 -11 0 -14 -3 -6 -6z"/>
<path d="M4595 8170 c3 -5 11 -10 16 -10 6 0 7 5 4 10 -3 6 -11 10 -16 10 -6
0 -7 -4 -4 -10z"/>
<path d="M4630 8140 c0 -5 5 -10 11 -10 5 0 7 5 4 10 -3 6 -8 10 -11 10 -2 0
-4 -4 -4 -10z"/>
<path d="M3707 8075 c-9 -19 -22 -35 -29 -35 -6 0 -20 -8 -31 -17 -18 -17 -19
-17 -15 12 2 19 11 33 26 40 37 16 25 24 -38 23 -41 -1 -63 -5 -68 -15 -5 -8
-24 -16 -44 -18 -60 -8 -106 -33 -124 -67 -16 -30 -18 -31 -25 -13 -8 18 -8
17 -7 -5 1 -14 -1 -30 -4 -36 -4 -6 8 -26 27 -44 36 -35 33 -35 87 14 19 17
22 17 30 2 12 -22 23 -20 52 9 20 20 25 21 30 9 11 -29 6 -61 -14 -84 -11 -13
-20 -31 -20 -41 0 -9 -11 -31 -25 -47 -28 -34 -30 -41 -14 -76 7 -14 17 -22
25 -19 8 3 14 1 14 -3 0 -13 -16 -36 -24 -35 -20 3 -26 -1 -26 -13 0 -18 -16
-29 -30 -21 -6 3 -2 21 10 43 22 41 24 52 11 52 -5 0 -12 -11 -15 -25 -4 -14
-11 -25 -16 -25 -6 0 -10 -10 -10 -22 0 -13 -9 -52 -20 -86 -22 -70 -25 -96
-11 -87 13 7 34 -33 27 -51 -4 -9 -14 -12 -29 -9 -19 5 -27 -1 -45 -34 -22
-38 -22 -40 -4 -50 10 -5 46 -13 80 -17 51 -5 62 -4 62 8 0 8 8 23 18 34 10
10 25 35 34 54 19 40 49 68 65 63 6 -2 14 5 18 17 4 12 16 26 28 31 50 23 72
39 55 39 -10 0 -18 7 -18 15 0 8 -4 15 -8 15 -5 0 -15 11 -22 24 -32 60 -80
33 -74 -42 3 -33 1 -40 -4 -22 -7 20 -15 25 -40 25 -18 0 -32 0 -32 1 0 7 123
124 131 124 18 0 36 25 30 40 -3 8 -14 27 -24 42 -23 33 -16 95 17 148 41 68
46 75 61 108 15 32 17 33 63 26 43 -6 46 -6 33 9 -7 10 -19 17 -25 17 -7 0
-23 11 -36 25 -31 33 -43 32 -63 -10z m-217 -514 c0 -11 -39 -21 -45 -11 -2 4
-2 10 2 14 10 9 43 7 43 -3z"/>
<path d="M4290 8071 c0 -5 7 -11 15 -15 9 -3 15 0 15 9 0 8 -7 15 -15 15 -8 0
-15 -4 -15 -9z"/>
<path d="M3265 8027 c-4 -10 -3 -23 3 -29 14 -14 21 3 12 27 -7 19 -8 19 -15
2z"/>
<path d="M4180 8010 c-62 -5 -64 -5 -35 -17 58 -23 143 -34 244 -31 55 1 101
5 101 8 0 27 -178 50 -310 40z"/>
<path d="M13640 7975 c0 -8 5 -15 10 -15 6 0 10 7 10 15 0 8 -4 15 -10 15 -5
0 -10 -7 -10 -15z"/>
<path d="M13427 7974 c-16 -16 -5 -24 34 -24 28 0 39 4 37 13 -5 13 -60 22
-71 11z"/>
<path d="M8646 7903 c-4 -38 -11 -88 -16 -113 -5 -25 -14 -106 -20 -180 -6
-74 -15 -162 -20 -195 -20 -134 -12 -671 12 -780 5 -27 11 -153 12 -280 1
-186 4 -242 18 -290 30 -101 86 -345 103 -443 8 -52 20 -102 25 -112 6 -10 10
-28 10 -40 0 -12 4 -19 9 -15 14 8 29 -24 24 -49 -4 -17 -3 -18 7 -6 9 13 10
12 7 -5 -2 -11 5 -37 15 -57 21 -43 44 -63 33 -28 -5 15 -4 20 4 16 18 -11 12
7 -10 34 l-20 25 11 -25 c10 -23 10 -24 -4 -6 -9 10 -13 23 -10 27 3 5 -7 29
-21 53 -23 39 -27 61 -35 188 -10 157 -21 222 -55 336 -12 38 -26 24 -20 -20
l5 -43 -10 35 c-6 19 -15 44 -19 55 -18 41 -41 106 -41 116 0 13 25 -11 32
-31 3 -8 3 41 0 110 -3 97 -1 143 13 205 27 121 28 146 11 226 -17 85 -37 272
-39 374 -2 127 13 368 28 425 18 72 41 226 56 373 13 132 15 126 -52 166 l-37
21 -6 -67z"/>
<path d="M12640 7885 c0 -10 7 -14 23 -11 12 3 30 5 40 5 33 2 6 21 -29 21
-23 0 -34 -5 -34 -15z"/>
<path d="M3812 7873 c-7 -2 -19 -17 -27 -33 -13 -25 -12 -29 11 -49 31 -27 35
-26 64 4 20 21 22 30 14 53 -9 26 -34 37 -62 25z m47 -37 c0 -7 -2 -6 -6 2 -2
6 -11 12 -19 12 -9 0 -12 5 -9 10 8 13 35 -6 34 -24z"/>
<path d="M12063 7870 c-55 -22 6 -59 64 -39 29 9 33 13 22 24 -19 19 -60 26
-86 15z"/>
<path d="M11718 7836 c-12 -8 -35 -11 -67 -8 -85 8 -142 -20 -68 -33 34 -6
194 9 204 19 7 7 -27 35 -42 35 -5 0 -18 -6 -27 -13z"/>
<path d="M11336 7794 c-25 -24 -10 -34 50 -34 51 0 54 1 54 25 0 23 -4 25 -44
25 -27 0 -51 -6 -60 -16z"/>
<path d="M11042 7783 c-69 -16 -77 -33 -22 -44 43 -9 152 3 157 16 3 11 -48
46 -64 44 -4 -1 -36 -8 -71 -16z"/>
<path d="M10866 7741 c-10 -15 28 -23 58 -12 14 6 26 12 26 14 0 8 -79 7 -84
-2z"/>
<path d="M10795 7719 c-4 -11 -4 -23 -1 -26 3 -4 6 1 6 10 0 10 5 17 10 17 6
0 10 5 10 10 0 18 -19 10 -25 -11z"/>
<path d="M1685 7693 c17 -69 42 -101 31 -39 -5 25 -3 35 9 40 12 4 15 -3 15
-39 0 -49 17 -58 53 -31 17 13 23 36 9 36 -4 0 -22 12 -39 27 -17 14 -42 27
-57 28 -23 1 -26 -2 -21 -22z"/>
<path d="M3672 7660 c-9 -15 -7 -21 13 -34 13 -9 31 -16 40 -16 8 0 15 -4 15
-9 0 -5 7 -11 15 -15 34 -13 13 32 -28 61 -41 28 -45 29 -55 13z"/>
<path d="M1630 7650 c0 -5 5 -10 10 -10 6 0 10 5 10 10 0 6 -4 10 -10 10 -5 0
-10 -4 -10 -10z"/>
<path d="M1650 7601 c0 -12 5 -21 10 -21 6 0 10 6 10 14 0 8 -4 18 -10 21 -5
3 -10 -3 -10 -14z"/>
<path d="M3870 7490 c0 -5 5 -10 10 -10 6 0 10 5 10 10 0 6 -4 10 -10 10 -5 0
-10 -4 -10 -10z"/>
<path d="M7120 7464 c0 -8 5 -12 10 -9 6 3 10 10 10 16 0 5 -4 9 -10 9 -5 0
-10 -7 -10 -16z"/>
<path d="M3592 7398 c-14 -14 -16 -28 -3 -28 5 0 11 9 14 20 6 23 5 24 -11 8z"/>
<path d="M6880 7232 c0 -5 7 -13 16 -16 24 -9 54 -7 54 4 0 6 -9 10 -19 10
-11 0 -26 3 -35 6 -9 3 -16 2 -16 -4z"/>
<path d="M6921 7144 c0 -11 3 -14 6 -6 3 7 2 16 -1 19 -3 4 -6 -2 -5 -13z"/>
<path d="M6830 7110 c0 -11 5 -20 10 -20 6 0 10 9 10 20 0 11 -4 20 -10 20 -5
0 -10 -9 -10 -20z"/>
<path d="M1360 7077 c0 -7 10 -21 23 -31 12 -10 30 -26 40 -34 16 -14 17 -13
11 19 -4 19 -11 40 -17 47 -12 16 -57 16 -57 -1z"/>
<path d="M8490 6981 c8 -5 29 -11 47 -14 26 -5 31 -3 26 8 -3 10 -19 15 -47
15 -27 -1 -36 -3 -26 -9z"/>
<path d="M6762 6958 c-16 -16 -15 -38 2 -38 17 0 27 22 17 38 -5 9 -10 9 -19
0z"/>
<path d="M6750 6870 c8 -14 8 -26 0 -41 -7 -11 -10 -21 -8 -22 2 -1 14 -8 26
-15 13 -7 27 -10 30 -6 4 4 1 9 -5 11 -7 3 -13 19 -13 37 0 31 -15 56 -32 56
-5 0 -4 -9 2 -20z"/>
<path d="M6707 6844 c-11 -11 -8 -26 3 -19 6 3 10 1 10 -6 0 -7 3 -10 6 -6 3
3 2 13 -3 22 -5 8 -12 12 -16 9z"/>
<path d="M13120 6780 c0 -5 18 -10 40 -10 22 0 40 5 40 10 0 6 -18 10 -40 10
-22 0 -40 -4 -40 -10z"/>
<path d="M13000 6770 c-11 -7 -2 -10 33 -10 26 0 47 5 47 10 0 13 -60 13 -80
0z"/>
<path d="M12618 6733 c7 -3 16 -2 19 1 4 3 -2 6 -13 5 -11 0 -14 -3 -6 -6z"/>
<path d="M12285 6716 l-30 -13 38 -8 c42 -8 114 2 101 15 -17 16 -79 20 -109
6z"/>
<path d="M12493 6723 c9 -2 23 -2 30 0 6 3 -1 5 -18 5 -16 0 -22 -2 -12 -5z"/>
<path d="M10426 6554 c-9 -22 -8 -24 9 -24 8 0 15 9 15 20 0 24 -15 27 -24 4z"/>
<path d="M5364 6468 c7 -18 31 -75 52 -125 22 -51 42 -93 46 -93 43 0 -22 204
-77 242 -26 19 -35 8 -21 -24z"/>
<path d="M12632 6254 c-11 -12 -9 -14 7 -14 23 0 36 16 18 23 -6 2 -18 -2 -25
-9z"/>
<path d="M12368 6238 c-27 -6 -48 -14 -48 -19 0 -13 158 -3 215 15 l50 15 -85
-1 c-47 0 -106 -5 -132 -10z"/>
<path d="M215 6200 c3 -5 10 -10 16 -10 5 0 9 5 9 10 0 6 -7 10 -16 10 -8 0
-12 -4 -9 -10z"/>
<path d="M293 6203 c-44 -6 -42 -27 5 -48 96 -45 267 -184 317 -259 11 -16 24
-34 29 -41 15 -21 -53 -95 -87 -95 -16 0 -26 -4 -23 -9 11 -17 121 -45 176
-45 85 0 107 9 120 48 17 52 0 98 -57 153 -27 27 -67 73 -90 104 -51 69 -124
135 -169 151 -19 7 -34 15 -34 19 0 10 -93 29 -128 27 -15 0 -42 -3 -59 -5z
m370 -417 c-21 -28 -28 -26 -18 3 3 12 13 21 21 21 12 0 12 -4 -3 -24z"/>
<path d="M156 6113 c-11 -11 -6 -23 9 -23 8 0 15 4 15 9 0 13 -16 22 -24 14z"/>
<path d="M3503 6103 c-41 -12 -53 -21 -58 -41 -4 -15 -21 -39 -38 -55 -107
-98 -109 -100 -102 -127 4 -14 11 -56 17 -95 6 -38 19 -99 29 -134 10 -35 19
-86 19 -112 0 -44 3 -51 37 -76 20 -15 46 -37 57 -48 l21 -20 1 120 c0 66 3
145 7 175 4 30 10 75 12 100 10 97 51 288 66 305 13 13 11 25 -3 24 -7 -1 -36
-8 -65 -16z"/>
<path d="M11010 6110 c-19 -5 -92 -12 -162 -16 -71 -3 -128 -9 -128 -13 0 -3
-55 -6 -123 -6 -67 1 -133 -2 -146 -5 -20 -5 -22 -7 -9 -18 19 -15 133 -16
248 -2 47 6 139 15 205 20 66 6 131 12 145 14 14 2 37 4 53 5 17 1 27 7 27 16
0 17 -49 19 -110 5z"/>
<path d="M11255 6113 c11 -3 24 -10 28 -17 6 -7 7 -6 4 4 -2 8 -14 16 -28 17
-19 1 -20 1 -4 -4z"/>
<path d="M480 5976 c0 -9 5 -16 10 -16 6 0 10 4 10 9 0 6 -4 13 -10 16 -5 3
-10 -1 -10 -9z"/>
<path d="M510 5940 c0 -5 7 -10 16 -10 8 0 12 5 9 10 -3 6 -10 10 -16 10 -5 0
-9 -4 -9 -10z"/>
<path d="M343 5763 c9 -9 19 -14 23 -11 10 10 -6 28 -24 28 -15 0 -15 -1 1
-17z"/>
<path d="M396 5743 c-11 -11 46 -55 63 -48 14 6 14 8 -4 21 -32 25 -52 34 -59
27z"/>
<path d="M3464 5349 c-3 -6 -1 -16 5 -22 8 -8 11 -5 11 11 0 24 -5 28 -16 11z"/>
<path d="M3456 5278 c-8 -18 -16 -39 -18 -45 -2 -10 -10 -9 -32 2 l-28 15 7
-57 c4 -31 9 -61 11 -67 4 -11 65 -56 76 -56 3 0 7 48 7 106 1 59 4 110 6 114
3 5 1 11 -4 15 -6 3 -16 -9 -25 -27z"/>
<path d="M9948 5236 c-16 -19 -28 -39 -28 -43 0 -4 17 -26 38 -49 20 -22 75
-83 122 -134 47 -52 95 -106 108 -120 22 -24 92 -127 196 -288 50 -77 176
-321 176 -341 0 -6 4 -11 8 -11 4 0 14 -17 21 -37 8 -21 29 -70 47 -109 19
-39 34 -74 34 -77 0 -3 17 -43 38 -89 22 -46 52 -113 67 -150 15 -38 31 -68
35 -68 4 0 11 -12 14 -26 7 -25 8 -25 20 -8 12 16 14 15 21 -15 5 -23 3 -36
-5 -41 -9 -5 -9 -13 -3 -25 9 -15 11 -12 17 17 3 20 4 44 0 54 -5 18 -5 18 6
1 6 -10 9 -30 5 -46 -6 -29 15 -58 33 -47 12 7 12 56 1 56 -5 0 -9 11 -9 25 0
31 -29 105 -42 105 -5 0 -7 4 -3 10 3 5 -3 18 -14 29 -11 11 -17 22 -14 25 7
7 -13 55 -117 281 -109 236 -269 528 -411 750 -86 133 -118 174 -276 343 l-58
63 -27 -35z"/>
<path d="M9859 5118 c-13 -18 -26 -35 -29 -38 -3 -3 -30 -36 -60 -75 -30 -38
-67 -83 -82 -100 -15 -16 -28 -33 -28 -37 0 -23 110 -13 125 12 9 15 25 12 25
-5 0 -9 7 -18 15 -21 35 -14 8 -21 -97 -28 -90 -5 -116 -10 -126 -24 -15 -19
-26 -33 -99 -119 -29 -33 -53 -65 -53 -69 0 -5 16 -26 36 -48 19 -21 54 -64
77 -95 23 -31 45 -60 50 -66 4 -5 16 -22 28 -37 20 -27 20 -27 39 -8 22 22 30
23 108 20 41 -1 52 2 52 14 0 9 4 16 8 16 9 0 43 65 48 89 1 7 7 18 13 24 6 6
11 21 11 33 0 13 5 26 10 29 12 7 70 -16 70 -28 0 -8 46 -70 82 -111 22 -24
48 -79 48 -100 0 -9 7 -16 15 -16 8 0 15 -7 15 -15 0 -17 10 -31 50 -71 20
-19 26 -21 28 -9 2 8 10 15 18 15 8 0 26 12 39 28 17 18 24 22 25 12 0 -17 58
-72 69 -66 4 3 8 -4 8 -16 1 -11 11 -30 22 -41 109 -117 151 -165 151 -175 0
-7 5 -12 11 -12 6 0 9 9 6 20 -3 11 -1 17 4 14 5 -3 9 -17 9 -32 1 -70 1 -72
26 -78 22 -6 25 -11 19 -33 -3 -17 -2 -21 3 -13 7 11 11 10 16 -4 3 -9 9 -14
12 -11 3 3 1 13 -5 24 -17 32 -51 109 -51 116 0 4 -10 29 -21 55 -26 57 -41
91 -109 252 -51 121 -166 350 -180 360 -4 3 -15 21 -25 40 -10 19 -21 37 -24
40 -3 3 -28 34 -56 70 -27 36 -52 67 -55 70 -3 3 -23 25 -44 50 -22 25 -74 83
-115 129 -42 46 -77 87 -79 92 -7 19 -31 8 -53 -23z m-185 -732 c-6 -15 -24
-23 -24 -11 0 8 24 34 28 30 1 -1 0 -10 -4 -19z m846 -281 c0 -8 -4 -15 -10
-15 -5 0 -7 7 -4 15 4 8 8 15 10 15 2 0 4 -7 4 -15z"/>
<path d="M3460 4981 c0 -28 5 -51 10 -51 6 0 10 20 10 44 0 25 -4 48 -10 51
-6 4 -10 -13 -10 -44z"/>
<path d="M3907 4738 c-3 -12 -2 -39 2 -58 l8 -35 4 48 c5 53 -5 83 -14 45z"/>
<path d="M9404 4568 c-24 -27 -74 -102 -74 -110 0 -3 17 -8 38 -12 51 -8 157
-80 193 -130 16 -23 36 -48 43 -57 7 -9 16 -22 19 -30 4 -10 6 -9 6 4 1 10 -4
27 -9 38 -13 24 -2 25 16 2 21 -28 17 4 -5 35 -10 15 -48 72 -84 127 -63 95
-109 155 -119 155 -2 0 -13 -10 -24 -22z"/>
<path d="M3442 4560 c0 -14 2 -19 5 -12 2 6 2 18 0 25 -3 6 -5 1 -5 -13z"/>
<path d="M3461 4504 c0 -11 3 -14 6 -6 3 7 2 16 -1 19 -3 4 -6 -2 -5 -13z"/>
<path d="M9630 4187 c0 -9 5 -17 10 -17 6 0 10 -8 11 -17 0 -11 3 -13 6 -6 2
7 -3 23 -11 35 -13 18 -16 19 -16 5z"/>
<path d="M9655 4068 c-4 -15 -3 -33 1 -40 5 -7 8 -22 6 -33 l-2 -20 10 20 c9
17 10 15 6 -11 -6 -40 3 -74 20 -74 15 0 12 26 -16 125 -16 54 -18 57 -25 33z"/>
<path d="M10290 4080 c0 -5 5 -10 10 -10 6 0 10 5 10 10 0 6 -4 10 -10 10 -5
0 -10 -4 -10 -10z"/>
<path d="M9010 4053 c0 -5 4 -15 10 -23 11 -18 25 -7 17 15 -6 15 -27 21 -27
8z"/>
<path d="M9030 4000 c0 -5 -6 -10 -13 -10 -8 0 -19 -11 -25 -25 -15 -33 -16
-99 -1 -89 6 4 8 20 5 39 -7 36 3 48 46 59 19 4 26 11 22 21 -7 17 -34 21 -34
5z"/>
<path d="M3710 3950 c0 -8 5 -22 10 -30 9 -13 10 -13 10 0 0 8 -5 22 -10 30
-9 13 -10 13 -10 0z"/>
<path d="M9082 3930 c-29 -12 -38 -35 -23 -63 11 -20 11 -20 6 6 -5 25 -2 30
25 40 16 6 30 15 30 19 0 10 -9 9 -38 -2z"/>
<path d="M9022 3910 c0 -14 2 -19 5 -12 2 6 2 18 0 25 -3 6 -5 1 -5 -13z"/>
<path d="M10121 3834 c0 -11 3 -14 6 -6 3 7 2 16 -1 19 -3 4 -6 -2 -5 -13z"/>
<path d="M10641 3814 c0 -11 3 -14 6 -6 3 7 2 16 -1 19 -3 4 -6 -2 -5 -13z"/>
<path d="M9727 3790 c-3 -11 -1 -20 4 -20 5 0 9 9 9 20 0 11 -2 20 -4 20 -2 0
-6 -9 -9 -20z"/>
<path d="M10665 3780 c-3 -5 -1 -10 4 -10 6 0 11 5 11 10 0 6 -2 10 -4 10 -3
0 -8 -4 -11 -10z"/>
<path d="M9747 3729 c4 -20 2 -34 -6 -39 -10 -5 -9 -9 3 -13 13 -5 16 1 16 33
0 21 -4 42 -10 45 -6 4 -7 -6 -3 -26z"/>
<path d="M9801 3744 c0 -11 3 -14 6 -6 3 7 2 16 -1 19 -3 4 -6 -2 -5 -13z"/>
<path d="M10055 3620 c-3 -5 -1 -10 4 -10 6 0 11 5 11 10 0 6 -2 10 -4 10 -3
0 -8 -4 -11 -10z"/>
<path d="M9782 3585 c0 -16 2 -22 5 -12 2 9 2 23 0 30 -3 6 -5 -1 -5 -18z"/>
<path d="M9927 3503 c-4 -3 -7 -30 -7 -58 0 -93 21 -150 34 -92 3 12 3 -5 1
-38 -2 -35 0 -52 5 -40 7 19 8 18 12 -5 l5 -25 2 25 c1 20 3 22 11 10 7 -11
10 -6 10 20 0 28 6 39 28 52 l27 17 -34 1 -34 0 6 55 c5 53 5 55 -25 70 -36
18 -33 17 -41 8z"/>
<path d="M9816 3455 c8 -72 13 -83 24 -65 13 20 13 63 0 55 -5 -3 -10 2 -10
12 0 10 -5 25 -10 33 -7 10 -8 -1 -4 -35z"/>
<path d="M9862 3433 c-8 -33 -8 -61 -2 -75 8 -20 9 -21 9 -4 1 20 1 20 16 0
14 -17 15 -14 9 36 -11 91 -20 103 -32 43z"/>
<path d="M9831 3360 c-1 -9 5 -40 13 -70 8 -30 17 -77 21 -105 9 -64 35 -167
46 -180 5 -5 9 -15 9 -23 0 -10 -3 -10 -16 2 -23 23 -25 20 -10 -16 7 -18 16
-78 20 -133 7 -103 23 -155 19 -62 -2 49 -1 48 13 -23 17 -88 38 -138 49 -120
4 7 3 15 -2 19 -6 3 -9 23 -9 44 1 20 -2 37 -6 37 -4 0 -8 7 -8 15 0 28 15 15
32 -28 17 -44 30 -112 31 -159 0 -16 3 -28 8 -28 4 0 19 -33 34 -72 15 -40 30
-82 35 -93 8 -19 13 -39 27 -107 3 -16 9 -28 14 -28 5 0 9 -10 9 -21 0 -12 9
-59 20 -106 12 -46 19 -87 16 -91 -2 -4 3 -32 11 -62 8 -30 20 -76 26 -102 6
-27 15 -48 19 -48 4 0 8 -9 8 -20 0 -19 49 -120 73 -150 7 -8 32 -31 57 -50
25 -19 47 -37 50 -40 3 -4 82 -56 175 -118 94 -61 175 -116 182 -122 7 -5 15
-10 18 -10 3 0 57 -33 121 -73 184 -114 188 -117 202 -123 17 -9 99 32 112 55
13 25 13 41 0 41 -5 0 -10 -7 -10 -15 0 -8 -4 -15 -10 -15 -5 0 -10 -6 -10
-14 0 -8 -10 -14 -22 -13 -13 0 -31 -3 -40 -7 -13 -6 -18 -4 -18 8 0 9 -8 16
-19 16 -11 0 -26 7 -35 15 -8 8 -20 15 -26 15 -6 0 -26 10 -43 23 -39 27 -58
39 -122 73 -27 14 -59 34 -70 44 -11 10 -42 30 -70 45 -27 15 -59 35 -70 45
-11 9 -54 40 -95 68 -96 66 -110 77 -110 89 0 6 -9 13 -21 16 -12 3 -18 10
-14 16 3 6 -1 11 -10 11 -9 0 -13 5 -10 10 3 6 -4 10 -15 10 -13 0 -24 8 -27
20 -3 11 -12 20 -19 20 -21 0 -72 61 -80 95 -4 16 -13 40 -21 52 -14 21 -23
64 -59 263 -8 47 -19 94 -24 105 -5 11 -17 55 -25 99 -9 43 -21 86 -26 95 -17
29 -70 185 -80 231 -17 87 -68 266 -90 315 -22 51 -49 147 -49 176 0 22 -4 30
-13 26 -10 -4 -13 2 -9 19 4 22 -20 134 -38 179 -5 11 -11 27 -13 35 -5 13 -6
13 -6 0z"/>
<path d="M8116 3266 c-10 -26 -16 -49 -14 -52 8 -7 41 73 36 87 -2 7 -12 -9
-22 -35z"/>
<path d="M8338 3066 c-3 -14 -2 -26 2 -26 13 0 21 33 12 42 -6 6 -11 -1 -14
-16z"/>
<path d="M8625 3030 c-17 -33 -20 -60 -5 -60 6 0 10 4 10 10 0 5 7 7 15 4 12
-5 15 3 15 35 0 48 -13 53 -35 11z"/>
<path d="M8296 2968 c-13 -24 -28 -55 -31 -70 -4 -16 -13 -28 -20 -28 -14 0
-27 -25 -18 -34 12 -12 58 52 80 112 12 34 21 62 18 62 -2 0 -15 -19 -29 -42z"/>
<path d="M1597 2976 c-4 -11 5 -15 39 -18 28 -2 44 1 44 8 0 7 -10 9 -25 6
-14 -2 -31 1 -39 7 -10 9 -15 8 -19 -3z"/>
<path d="M1345 2960 c3 -5 8 -10 11 -10 2 0 4 5 4 10 0 6 -5 10 -11 10 -5 0
-7 -4 -4 -10z"/>
<path d="M1397 2959 c8 -8 16 -8 30 0 16 9 14 10 -11 11 -22 0 -27 -3 -19 -11z"/>
<path d="M1506 2955 c4 -8 8 -15 10 -15 2 0 4 7 4 15 0 8 -4 15 -10 15 -5 0
-7 -7 -4 -15z"/>
<path d="M8636 2952 c-4 -13 -5 -26 -2 -29 10 -11 18 4 14 29 l-4 23 -8 -23z"/>
<path d="M1860 2936 c0 -9 5 -16 10 -16 6 0 10 4 10 9 0 6 -4 13 -10 16 -5 3
-10 -1 -10 -9z"/>
<path d="M1625 2930 c-3 -5 1 -10 9 -10 8 0 18 5 21 10 3 6 -1 10 -9 10 -8 0
-18 -4 -21 -10z"/>
<path d="M1745 2930 c3 -5 8 -10 11 -10 2 0 4 5 4 10 0 6 -5 10 -11 10 -5 0
-7 -4 -4 -10z"/>
<path d="M1420 2921 c0 -6 5 -13 10 -16 6 -3 10 1 10 9 0 9 -4 16 -10 16 -5 0
-10 -4 -10 -9z"/>
<path d="M2000 2920 c0 -5 7 -10 16 -10 8 0 12 5 9 10 -3 6 -10 10 -16 10 -5
0 -9 -4 -9 -10z"/>
<path d="M1937 2889 c-3 -10 -1 -22 4 -25 5 -3 9 1 9 10 0 8 5 16 12 18 8 3 6
6 -4 10 -11 5 -18 0 -21 -13z"/>
<path d="M2235 2900 c-3 -5 -16 -10 -28 -10 -16 0 -18 -3 -9 -12 8 -8 15 -8
27 2 10 8 15 9 15 1 0 -6 5 -11 11 -11 5 0 7 5 4 10 -3 6 1 10 10 10 9 0 13 5
10 10 -3 6 -12 10 -20 10 -8 0 -17 -4 -20 -10z"/>
<path d="M1460 2890 c0 -5 7 -7 15 -4 8 4 15 8 15 10 0 2 -7 4 -15 4 -8 0 -15
-4 -15 -10z"/>
<path d="M2121 2886 c12 -10 59 -15 59 -6 0 5 -14 10 -32 10 -17 0 -29 -2 -27
-4z"/>
<path d="M1520 2870 c0 -5 5 -10 11 -10 5 0 7 5 4 10 -3 6 -8 10 -11 10 -2 0
-4 -4 -4 -10z"/>
<path d="M2386 2872 c-4 -8 -17 -12 -27 -9 -24 6 -24 -5 -1 -20 23 -14 45 -2
40 23 -3 15 -5 16 -12 6z"/>
<path d="M2740 2870 c0 -5 -12 -13 -27 -17 l-28 -6 30 -9 c17 -4 39 -5 49 -2
14 5 18 2 13 -9 -3 -10 1 -17 14 -20 23 -6 25 6 3 28 -10 9 -24 13 -36 9 -17
-5 -19 -3 -13 15 3 12 4 21 1 21 -3 0 -6 -4 -6 -10z"/>
<path d="M2867 2874 c-4 -4 -2 -13 4 -20 6 -8 8 -22 5 -31 -6 -14 -4 -15 5 -6
7 7 8 20 2 38 -4 14 -12 23 -16 19z"/>
<path d="M2974 2872 c-13 -8 -25 -74 -12 -66 4 3 8 14 8 24 0 10 5 20 12 22 6
2 9 9 7 16 -2 6 -9 8 -15 4z"/>
<path d="M1101 2839 c12 -23 15 -23 22 -5 3 8 -2 16 -14 19 -16 4 -17 2 -8
-14z"/>
<path d="M1185 2847 c-4 -10 -5 -21 -1 -24 10 -10 18 4 13 24 -4 17 -4 17 -12
0z"/>
<path d="M3135 2850 c3 -5 10 -10 16 -10 5 0 9 5 9 10 0 6 -7 10 -16 10 -8 0
-12 -4 -9 -10z"/>
<path d="M1425 2840 c-8 -14 9 -34 23 -29 7 3 6 11 -3 22 -9 13 -15 15 -20 7z"/>
<path d="M1828 2843 c7 -3 16 -2 19 1 4 3 -2 6 -13 5 -11 0 -14 -3 -6 -6z"/>
<path d="M1970 2835 c0 -8 7 -15 15 -15 8 0 15 7 15 15 0 8 -7 15 -15 15 -8 0
-15 -7 -15 -15z"/>
<path d="M2305 2840 c-3 -5 -1 -10 4 -10 6 0 11 5 11 10 0 6 -2 10 -4 10 -3 0
-8 -4 -11 -10z"/>
<path d="M3040 2831 c0 -16 -6 -21 -27 -21 -20 0 -24 -3 -16 -11 7 -7 17 -8
29 -1 11 5 25 7 32 5 17 -6 15 22 -3 37 -13 10 -15 9 -15 -9z"/>
<path d="M730 2815 c-7 -9 -10 -18 -6 -22 3 -3 6 -1 6 5 0 7 14 12 31 12 17 0
28 4 24 10 -9 15 -41 12 -55 -5z"/>
<path d="M1226 2821 c-3 -5 1 -11 9 -15 9 -3 15 0 15 9 0 16 -16 20 -24 6z"/>
<path d="M7877 2823 c-4 -3 -7 -13 -7 -20 0 -12 3 -12 15 1 8 8 15 17 15 20 0
8 -15 7 -23 -1z"/>
<path d="M924 2805 c-3 -8 -3 -19 1 -25 9 -14 35 6 35 26 0 19 -29 18 -36 -1z"/>
<path d="M3276 2805 c4 -10 20 -15 45 -15 43 0 52 14 17 24 -42 11 -68 7 -62
-9z"/>
<path d="M971 2796 c-9 -11 -9 -16 -1 -21 7 -4 10 -15 7 -25 -4 -15 3 -19 33
-22 30 -3 36 0 33 13 -3 11 -12 15 -24 12 -15 -4 -19 0 -19 20 0 31 -14 42
-29 23z"/>
<path d="M2488 2803 c7 -3 16 -2 19 1 4 3 -2 6 -13 5 -11 0 -14 -3 -6 -6z"/>
<path d="M3150 2800 c0 -5 6 -10 14 -10 8 0 18 5 21 10 3 6 -3 10 -14 10 -12
0 -21 -4 -21 -10z"/>
<path d="M3540 2801 c0 -5 6 -13 13 -18 18 -15 57 -23 57 -12 0 5 -6 9 -14 9
-8 0 -16 7 -20 15 -6 16 -36 21 -36 6z"/>
<path d="M9890 2801 c0 -6 5 -13 10 -16 6 -3 10 1 10 9 0 9 -4 16 -10 16 -5 0
-10 -4 -10 -9z"/>
<path d="M1148 2788 c9 -9 15 -9 24 0 9 9 7 12 -12 12 -19 0 -21 -3 -12 -12z"/>
<path d="M3208 2793 c6 -2 18 -2 25 0 6 3 1 5 -13 5 -14 0 -19 -2 -12 -5z"/>
<path d="M655 2775 c-32 -25 -1 -44 78 -47 37 -2 67 -7 67 -11 0 -5 -25 -7
-55 -6 -33 2 -60 -2 -67 -9 -7 -7 -18 -12 -25 -12 -34 0 -3 -35 38 -42 26 -5
57 16 39 27 -6 3 -10 1 -10 -4 0 -6 -7 -11 -15 -11 -18 0 -20 26 -2 32 6 2 30
4 52 3 42 0 65 13 65 38 0 21 -29 30 -36 12 -7 -17 -34 -21 -34 -5 0 6 7 10
15 10 16 0 21 25 7 34 -11 7 -27 -6 -35 -27 -9 -23 -29 -18 -42 11 -11 26 -14
26 -40 7z"/>
<path d="M2190 2780 c-11 -7 -7 -10 18 -10 17 0 32 5 32 10 0 13 -30 13 -50 0z"/>
<path d="M2595 2780 c-3 -5 -1 -10 4 -10 6 0 11 5 11 10 0 6 -2 10 -4 10 -3 0
-8 -4 -11 -10z"/>
<path d="M2000 2770 c0 -5 4 -10 9 -10 6 0 13 5 16 10 3 6 -1 10 -9 10 -9 0
-16 -4 -16 -10z"/>
<path d="M3488 2773 c6 -2 18 -2 25 0 6 3 1 5 -13 5 -14 0 -19 -2 -12 -5z"/>
<path d="M7840 2771 c0 -5 -3 -18 -6 -28 -6 -16 -5 -16 9 2 19 23 21 35 7 35
-5 0 -10 -4 -10 -9z"/>
<path d="M2495 2760 c-3 -5 3 -10 14 -10 12 0 21 5 21 10 0 6 -6 10 -14 10 -8
0 -18 -4 -21 -10z"/>
<path d="M2945 2760 c-3 -5 -1 -10 4 -10 6 0 11 5 11 10 0 6 -2 10 -4 10 -3 0
-8 -4 -11 -10z"/>
<path d="M3208 2763 c7 -3 16 -2 19 1 4 3 -2 6 -13 5 -11 0 -14 -3 -6 -6z"/>
<path d="M11300 2764 c0 -13 18 -39 24 -34 2 3 -2 14 -10 24 -8 11 -14 16 -14
10z"/>
<path d="M1418 2753 c6 -2 18 -2 25 0 6 3 1 5 -13 5 -14 0 -19 -2 -12 -5z"/>
<path d="M1620 2750 c0 -5 5 -10 10 -10 6 0 10 5 10 10 0 6 -4 10 -10 10 -5 0
-10 -4 -10 -10z"/>
<path d="M3448 2753 c7 -3 16 -2 19 1 4 3 -2 6 -13 5 -11 0 -14 -3 -6 -6z"/>
<path d="M890 2738 c0 -21 17 -41 29 -34 7 5 7 13 -2 26 -13 23 -27 26 -27 8z"/>
<path d="M2188 2743 c7 -3 16 -2 19 1 4 3 -2 6 -13 5 -11 0 -14 -3 -6 -6z"/>
<path d="M10041 2734 c0 -11 3 -14 6 -6 3 7 2 16 -1 19 -3 4 -6 -2 -5 -13z"/>
<path d="M860 2730 c-13 -8 -12 -10 3 -10 9 0 17 5 17 10 0 12 -1 12 -20 0z"/>
<path d="M3520 2730 c0 -5 5 -10 11 -10 5 0 7 5 4 10 -3 6 -8 10 -11 10 -2 0
-4 -4 -4 -10z"/>
<path d="M1923 2719 c14 -8 22 -8 30 0 8 8 3 11 -18 11 -26 -1 -28 -2 -12 -11z"/>
<path d="M3550 2700 c-11 -7 -7 -10 18 -10 17 0 32 5 32 10 0 13 -30 13 -50 0z"/>
<path d="M827 2694 c-12 -12 4 -24 29 -24 23 0 24 2 10 15 -16 16 -29 19 -39
9z"/>
<path d="M2088 2693 c7 -3 16 -2 19 1 4 3 -2 6 -13 5 -11 0 -14 -3 -6 -6z"/>
<path d="M10052 2680 c0 -14 2 -19 5 -12 2 6 2 18 0 25 -3 6 -5 1 -5 -13z"/>
<path d="M13480 2690 c0 -5 7 -10 16 -10 8 0 12 5 9 10 -3 6 -10 10 -16 10 -5
0 -9 -4 -9 -10z"/>
<path d="M8072 2670 c-6 -10 -8 -21 -3 -24 5 -3 11 4 14 16 8 29 4 32 -11 8z"/>
<path d="M3468 2673 c7 -3 16 -2 19 1 4 3 -2 6 -13 5 -11 0 -14 -3 -6 -6z"/>
<path d="M507 2664 c-9 -10 2 -24 18 -24 9 0 12 6 9 15 -6 16 -17 19 -27 9z"/>
<path d="M890 2660 c-13 -8 -12 -10 3 -10 9 0 17 5 17 10 0 12 -1 12 -20 0z"/>
<path d="M3245 2650 c3 -5 8 -10 11 -10 2 0 4 5 4 10 0 6 -5 10 -11 10 -5 0
-7 -4 -4 -10z"/>
<path d="M477 2630 c6 -21 18 -26 28 -11 3 6 -3 15 -14 20 -16 9 -18 8 -14 -9z"/>
<path d="M835 2641 c-7 -12 12 -24 25 -16 11 7 4 25 -10 25 -5 0 -11 -4 -15
-9z"/>
<path d="M3168 2643 c7 -3 16 -2 19 1 4 3 -2 6 -13 5 -11 0 -14 -3 -6 -6z"/>
<path d="M8008 2643 c-5 -12 -95 -73 -107 -73 -23 0 -10 -15 14 -16 14 -1 25
1 25 5 0 4 15 13 34 21 19 7 44 26 56 42 20 27 20 28 1 28 -11 0 -21 -3 -23
-7z"/>
<path d="M10868 2643 c7 -3 16 -2 19 1 4 3 -2 6 -13 5 -11 0 -14 -3 -6 -6z"/>
<path d="M10940 2636 c0 -2 7 -7 16 -10 8 -3 12 -2 9 4 -6 10 -25 14 -25 6z"/>
<path d="M1735 2609 c-16 -6 -14 -8 13 -8 33 -1 41 4 20 12 -7 2 -22 1 -33 -4z"/>
<path d="M1880 2610 c0 -5 5 -10 11 -10 5 0 7 5 4 10 -3 6 -8 10 -11 10 -2 0
-4 -4 -4 -10z"/>
<path d="M3065 2610 c-3 -5 3 -10 15 -10 12 0 18 5 15 10 -3 6 -10 10 -15 10
-5 0 -12 -4 -15 -10z"/>
<path d="M10910 2610 c0 -5 4 -10 9 -10 6 0 13 5 16 10 3 6 -1 10 -9 10 -9 0
-16 -4 -16 -10z"/>
<path d="M535 2601 c-3 -6 4 -15 15 -21 22 -12 23 -10 14 14 -7 18 -20 21 -29
7z"/>
<path d="M1040 2600 c0 -5 5 -10 11 -10 5 0 7 5 4 10 -3 6 -8 10 -11 10 -2 0
-4 -4 -4 -10z"/>
<path d="M2898 2603 c7 -3 16 -2 19 1 4 3 -2 6 -13 5 -11 0 -14 -3 -6 -6z"/>
<path d="M1805 2580 c3 -5 8 -10 11 -10 2 0 4 5 4 10 0 6 -5 10 -11 10 -5 0
-7 -4 -4 -10z"/>
<path d="M13528 2583 c7 -3 16 -2 19 1 4 3 -2 6 -13 5 -11 0 -14 -3 -6 -6z"/>
<path d="M500 2576 c0 -2 9 -6 20 -9 11 -3 18 -1 14 4 -5 9 -34 13 -34 5z"/>
<path d="M1058 2573 c7 -3 16 -2 19 1 4 3 -2 6 -13 5 -11 0 -14 -3 -6 -6z"/>
<path d="M1005 2560 c3 -5 10 -10 16 -10 5 0 9 5 9 10 0 6 -7 10 -16 10 -8 0
-12 -4 -9 -10z"/>
<path d="M2513 2563 c9 -2 25 -2 35 0 9 3 1 5 -18 5 -19 0 -27 -2 -17 -5z"/>
<path d="M3338 2563 c6 -2 18 -2 25 0 6 3 1 5 -13 5 -14 0 -19 -2 -12 -5z"/>
<path d="M3530 2560 c-12 -8 -12 -10 3 -16 21 -8 35 2 21 16 -5 5 -15 6 -24 0z"/>
<path d="M600 2550 c0 -5 9 -10 21 -10 11 0 17 5 14 10 -3 6 -13 10 -21 10 -8
0 -14 -4 -14 -10z"/>
<path d="M10738 2553 c7 -3 16 -2 19 1 4 3 -2 6 -13 5 -11 0 -14 -3 -6 -6z"/>
<path d="M2660 2540 c0 -5 7 -10 15 -10 8 0 15 5 15 10 0 6 -7 10 -15 10 -8 0
-15 -4 -15 -10z"/>
<path d="M3048 2543 c7 -3 16 -2 19 1 4 3 -2 6 -13 5 -11 0 -14 -3 -6 -6z"/>
<path d="M255 2530 c18 -8 18 -9 -4 -9 -20 -1 -22 -4 -13 -13 10 -10 17 -10
32 0 11 6 28 12 37 13 23 1 -24 17 -52 17 l-20 1 20 -9z"/>
<path d="M365 2520 c-3 -5 1 -10 9 -10 8 0 18 5 21 10 3 6 -1 10 -9 10 -8 0
-18 -4 -21 -10z"/>
<path d="M424 2510 c0 -22 4 -24 26 -10 13 9 13 11 0 20 -22 14 -26 12 -26
-10z"/>
<path d="M3120 2520 c0 -5 5 -10 11 -10 5 0 7 5 4 10 -3 6 -8 10 -11 10 -2 0
-4 -4 -4 -10z"/>
<path d="M575 2511 c-6 -11 9 -23 19 -14 9 9 7 23 -3 23 -6 0 -12 -4 -16 -9z"/>
<path d="M625 2510 c3 -5 8 -10 11 -10 2 0 4 5 4 10 0 6 -5 10 -11 10 -5 0 -7
-4 -4 -10z"/>
<path d="M1080 2500 c0 -5 5 -10 10 -10 6 0 10 5 10 10 0 6 -4 10 -10 10 -5 0
-10 -4 -10 -10z"/>
<path d="M3300 2500 c0 -5 7 -10 16 -10 8 0 12 5 9 10 -3 6 -10 10 -16 10 -5
0 -9 -4 -9 -10z"/>
<path d="M3345 2500 c-3 -5 -1 -10 4 -10 6 0 11 5 11 10 0 6 -2 10 -4 10 -3 0
-8 -4 -11 -10z"/>
<path d="M475 2491 c-2 -5 4 -11 15 -14 11 -3 20 -2 20 3 0 12 -28 21 -35 11z"/>
<path d="M688 2493 c7 -3 16 -2 19 1 4 3 -2 6 -13 5 -11 0 -14 -3 -6 -6z"/>
<path d="M1388 2493 c6 -2 18 -2 25 0 6 3 1 5 -13 5 -14 0 -19 -2 -12 -5z"/>
<path d="M0 2481 c0 -5 20 -11 44 -12 35 -3 42 -1 34 8 -12 15 -78 18 -78 4z"/>
<path d="M3560 2486 c0 -9 30 -14 35 -6 4 6 -3 10 -14 10 -12 0 -21 -2 -21 -4z"/>
<path d="M3251 2464 c13 -16 29 -19 29 -5 0 5 -9 11 -21 14 -16 4 -18 3 -8 -9z"/>
<path d="M3330 2460 c19 -13 30 -13 30 0 0 6 -10 10 -22 10 -19 0 -20 -2 -8
-10z"/>
<path d="M13586 2445 c-9 -14 -20 -24 -24 -23 -15 3 -42 -15 -42 -28 0 -8 -5
-14 -11 -14 -6 0 -8 7 -5 16 5 13 1 15 -16 12 -61 -13 -68 -19 -68 -58 0 -14
3 -20 8 -14 4 7 34 17 67 23 112 22 108 20 95 36 -9 11 -9 15 -1 15 6 0 11 -5
11 -10 0 -6 10 -14 23 -19 18 -7 23 -4 29 13 10 33 9 68 -2 61 -5 -3 -7 -12
-4 -19 3 -8 0 -17 -6 -21 -14 -8 -41 25 -35 43 7 20 -1 14 -19 -13z"/>
<path d="M188 2448 c9 -9 15 -9 24 0 9 9 7 12 -12 12 -19 0 -21 -3 -12 -12z"/>
<path d="M1290 2456 c0 -2 9 -6 20 -9 11 -3 20 -1 20 4 0 5 -9 9 -20 9 -11 0
-20 -2 -20 -4z"/>
<path d="M13310 2450 c0 -5 5 -10 11 -10 5 0 7 5 4 10 -3 6 -8 10 -11 10 -2 0
-4 -4 -4 -10z"/>
<path d="M13425 2450 c-4 -6 3 -10 14 -10 25 0 27 6 6 13 -8 4 -17 2 -20 -3z"/>
<path d="M2938 2443 c6 -2 18 -2 25 0 6 3 1 5 -13 5 -14 0 -19 -2 -12 -5z"/>
<path d="M3720 2440 c0 -5 5 -10 11 -10 5 0 7 5 4 10 -3 6 -8 10 -11 10 -2 0
-4 -4 -4 -10z"/>
<path d="M691 2424 c0 -11 3 -14 6 -6 3 7 2 16 -1 19 -3 4 -6 -2 -5 -13z"/>
<path d="M4080 2420 c0 -5 5 -10 11 -10 5 0 7 5 4 10 -3 6 -8 10 -11 10 -2 0
-4 -4 -4 -10z"/>
<path d="M248 2413 c7 -3 16 -2 19 1 4 3 -2 6 -13 5 -11 0 -14 -3 -6 -6z"/>
<path d="M13358 2412 l-37 -3 16 -34 c9 -18 25 -36 37 -39 27 -7 33 1 19 23
-9 14 -8 22 4 33 19 19 9 24 -39 20z"/>
<path d="M4010 2406 c0 -2 7 -6 15 -10 8 -3 15 -1 15 4 0 6 -7 10 -15 10 -8 0
-15 -2 -15 -4z"/>
<path d="M4273 2403 c9 -2 25 -2 35 0 9 3 1 5 -18 5 -19 0 -27 -2 -17 -5z"/>
<path d="M3655 2390 c-3 -5 -1 -10 4 -10 6 0 11 5 11 10 0 6 -2 10 -4 10 -3 0
-8 -4 -11 -10z"/>
<path d="M10905 2390 c-3 -5 -1 -10 4 -10 6 0 11 5 11 10 0 6 -2 10 -4 10 -3
0 -8 -4 -11 -10z"/>
<path d="M3478 2373 c7 -3 16 -2 19 1 4 3 -2 6 -13 5 -11 0 -14 -3 -6 -6z"/>
<path d="M140 2330 c0 -5 5 -10 10 -10 6 0 10 5 10 10 0 6 -4 10 -10 10 -5 0
-10 -4 -10 -10z"/>
<path d="M828 2333 c7 -3 16 -2 19 1 4 3 -2 6 -13 5 -11 0 -14 -3 -6 -6z"/>
<path d="M4328 2323 c7 -3 16 -2 19 1 4 3 -2 6 -13 5 -11 0 -14 -3 -6 -6z"/>
<path d="M3700 2300 c-23 -7 -23 -8 -3 -9 12 -1 25 4 28 9 3 6 5 10 3 9 -2 -1
-14 -5 -28 -9z"/>
<path d="M4340 2301 c0 -6 15 -11 33 -13 32 -4 32 -4 8 -14 l-25 -11 34 -11
c18 -7 36 -10 38 -7 3 3 0 5 -7 5 -6 0 -11 6 -10 13 5 27 -14 47 -42 47 -16 0
-29 -4 -29 -9z"/>
<path d="M2040 2290 c0 -5 5 -10 11 -10 5 0 7 5 4 10 -3 6 -8 10 -11 10 -2 0
-4 -4 -4 -10z"/>
<path d="M655 2270 c3 -5 8 -10 11 -10 2 0 4 5 4 10 0 6 -5 10 -11 10 -5 0 -7
-4 -4 -10z"/>
<path d="M2720 2270 c0 -5 5 -10 11 -10 5 0 7 5 4 10 -3 6 -8 10 -11 10 -2 0
-4 -4 -4 -10z"/>
<path d="M3248 2273 c6 -2 18 -2 25 0 6 3 1 5 -13 5 -14 0 -19 -2 -12 -5z"/>
<path d="M3323 2273 c9 -2 23 -2 30 0 6 3 -1 5 -18 5 -16 0 -22 -2 -12 -5z"/>
<path d="M3745 2270 c-3 -5 1 -10 10 -10 9 0 13 5 10 10 -3 6 -8 10 -10 10 -2
0 -7 -4 -10 -10z"/>
<path d="M4076 2265 c4 -8 10 -15 15 -15 5 0 9 7 9 15 0 8 -7 15 -15 15 -9 0
-12 -6 -9 -15z"/>
<path d="M3800 2260 c0 -5 5 -10 11 -10 5 0 7 5 4 10 -3 6 -8 10 -11 10 -2 0
-4 -4 -4 -10z"/>
<path d="M95 2250 c4 -6 11 -8 16 -5 14 9 11 15 -7 15 -8 0 -12 -5 -9 -10z"/>
<path d="M2740 2239 c0 -5 5 -7 10 -4 6 3 10 8 10 11 0 2 -4 4 -10 4 -5 0 -10
-5 -10 -11z"/>
<path d="M4110 2230 c0 -5 5 -10 11 -10 5 0 7 5 4 10 -3 6 -8 10 -11 10 -2 0
-4 -4 -4 -10z"/>
<path d="M4410 2223 c1 -18 18 -35 24 -24 4 6 4 16 1 21 -7 12 -25 13 -25 3z"/>
<path d="M3665 2200 c3 -5 8 -10 11 -10 2 0 4 5 4 10 0 6 -5 10 -11 10 -5 0
-7 -4 -4 -10z"/>
<path d="M3980 2206 c0 -9 30 -14 35 -6 4 6 -3 10 -14 10 -12 0 -21 -2 -21 -4z"/>
<path d="M2708 2173 c7 -3 16 -2 19 1 4 3 -2 6 -13 5 -11 0 -14 -3 -6 -6z"/>
<path d="M433 2163 c9 -2 25 -2 35 0 9 3 1 5 -18 5 -19 0 -27 -2 -17 -5z"/>
<path d="M1405 2160 c3 -5 8 -10 11 -10 2 0 4 5 4 10 0 6 -5 10 -11 10 -5 0
-7 -4 -4 -10z"/>
<path d="M3625 2159 c-11 -17 1 -21 15 -4 8 9 8 15 2 15 -6 0 -14 -5 -17 -11z"/>
<path d="M4205 2159 c-4 -5 5 -9 19 -9 14 0 26 4 26 8 0 11 -39 12 -45 1z"/>
<path d="M1560 2150 c0 -5 5 -10 10 -10 6 0 10 5 10 10 0 6 -4 10 -10 10 -5 0
-10 -4 -10 -10z"/>
<path d="M350 2140 c0 -5 5 -10 10 -10 6 0 10 5 10 10 0 6 -4 10 -10 10 -5 0
-10 -4 -10 -10z"/>
<path d="M800 2140 c0 -5 5 -10 10 -10 6 0 10 5 10 10 0 6 -4 10 -10 10 -5 0
-10 -4 -10 -10z"/>
<path d="M3870 2140 c0 -5 5 -10 10 -10 6 0 10 5 10 10 0 6 -4 10 -10 10 -5 0
-10 -4 -10 -10z"/>
<path d="M380 2120 c0 -5 5 -10 10 -10 6 0 10 5 10 10 0 6 -4 10 -10 10 -5 0
-10 -4 -10 -10z"/>
<path d="M4350 2094 c0 -8 5 -12 10 -9 6 4 8 11 5 16 -9 14 -15 11 -15 -7z"/>
<path d="M118 2083 c6 -2 18 -2 25 0 6 3 1 5 -13 5 -14 0 -19 -2 -12 -5z"/>
<path d="M1515 2080 c-3 -5 -1 -10 4 -10 6 0 11 5 11 10 0 6 -2 10 -4 10 -3 0
-8 -4 -11 -10z"/>
<path d="M1008 2063 c7 -3 16 -2 19 1 4 3 -2 6 -13 5 -11 0 -14 -3 -6 -6z"/>
<path d="M897 2034 c-8 -8 1 -24 14 -24 5 0 9 7 9 15 0 15 -12 20 -23 9z"/>
<path d="M1510 2031 c0 -5 5 -13 10 -16 6 -3 10 -2 10 4 0 5 -4 13 -10 16 -5
3 -10 2 -10 -4z"/>
<path d="M3975 2020 c-3 -5 -1 -10 4 -10 6 0 11 5 11 10 0 6 -2 10 -4 10 -3 0
-8 -4 -11 -10z"/>
<path d="M4138 2003 c7 -3 16 -2 19 1 4 3 -2 6 -13 5 -11 0 -14 -3 -6 -6z"/>
<path d="M1655 1980 c3 -5 10 -10 16 -10 5 0 9 5 9 10 0 6 -7 10 -16 10 -8 0
-12 -4 -9 -10z"/>
<path d="M3230 1981 c0 -6 4 -13 10 -16 6 -3 7 1 4 9 -7 18 -14 21 -14 7z"/>
<path d="M2630 1960 c0 -5 5 -10 11 -10 5 0 7 5 4 10 -3 6 -8 10 -11 10 -2 0
-4 -4 -4 -10z"/>
<path d="M5 1939 c-10 -15 -2 -19 23 -12 12 3 19 9 16 14 -7 12 -31 11 -39 -2z"/>
<path d="M3237 1929 c7 -7 15 -10 18 -7 3 3 -2 9 -12 12 -14 6 -15 5 -6 -5z"/>
<path d="M11679 1896 c-7 -15 -18 -25 -25 -22 -8 3 -10 -3 -6 -16 3 -14 1 -19
-6 -14 -7 4 -12 3 -12 -2 0 -5 -9 -19 -20 -32 -12 -13 -20 -18 -20 -10 0 7 -3
11 -6 8 -3 -4 0 -16 6 -28 8 -14 8 -20 1 -16 -6 4 -13 -4 -17 -19 -3 -14 -10
-25 -15 -25 -5 0 -5 -8 -2 -17 5 -13 2 -15 -11 -10 -14 6 -17 3 -12 -9 7 -19
-11 -57 -24 -49 -6 3 -7 -1 -4 -9 3 -9 1 -16 -5 -16 -6 0 -11 -5 -11 -10 0 -6
-11 -22 -25 -36 -14 -14 -25 -33 -25 -42 0 -10 -9 -24 -20 -32 -11 -8 -20 -20
-20 -28 0 -7 -12 -33 -26 -58 -14 -24 -24 -49 -21 -56 2 -7 8 -1 12 15 4 15
11 27 15 27 5 0 20 21 35 48 15 26 47 76 70 112 139 211 222 356 211 367 -3 3
-11 -6 -17 -21z"/>
<path d="M11530 1899 c0 -5 5 -7 10 -4 6 3 10 8 10 11 0 2 -4 4 -10 4 -5 0
-10 -5 -10 -11z"/>
<path d="M3910 1861 c0 -10 19 -25 25 -20 1 2 -3 10 -11 17 -8 7 -14 8 -14 3z"/>
<path d="M2880 1849 c0 -5 5 -7 10 -4 6 3 10 8 10 11 0 2 -4 4 -10 4 -5 0 -10
-5 -10 -11z"/>
<path d="M820 1829 c0 -5 5 -7 10 -4 6 3 10 8 10 11 0 2 -4 4 -10 4 -5 0 -10
-5 -10 -11z"/>
<path d="M1230 1810 c0 -5 5 -10 10 -10 6 0 10 5 10 10 0 6 -4 10 -10 10 -5 0
-10 -4 -10 -10z"/>
<path d="M2590 1750 c0 -5 7 -10 15 -10 8 0 15 5 15 10 0 6 -7 10 -15 10 -8 0
-15 -4 -15 -10z"/>
<path d="M830 1600 c0 -5 5 -10 10 -10 6 0 10 5 10 10 0 6 -4 10 -10 10 -5 0
-10 -4 -10 -10z"/>
<path d="M3863 1332 c-6 -4 -13 -25 -15 -46 -3 -37 -28 -65 -28 -32 0 9 -8 16
-20 16 -22 0 -27 -16 -7 -23 26 -10 -25 -35 -55 -27 -41 12 -48 19 -48 45 0
13 -4 27 -10 30 -5 3 -10 -3 -10 -13 0 -19 -25 -38 -44 -33 -5 1 -19 -8 -32
-20 -12 -11 -27 -18 -33 -14 -15 9 -14 -20 2 -33 12 -10 169 -8 266 4 51 6 91
30 91 54 0 15 -17 12 -24 -5 -10 -26 -36 -5 -36 29 0 36 15 56 42 56 10 0 18
5 18 10 0 12 -40 13 -57 2z"/>
<path d="M11323 1314 c-15 -16 -16 -24 -4 -24 8 0 24 30 19 35 -2 2 -9 -3 -15
-11z"/>
<path d="M2720 1310 c0 -5 9 -10 19 -10 11 0 23 5 26 10 4 6 -5 10 -19 10 -14
0 -26 -4 -26 -10z"/>
<path d="M3597 1289 c7 -7 15 -10 18 -7 3 3 -2 9 -12 12 -14 6 -15 5 -6 -5z"/>
<path d="M3305 1270 c-3 -5 -1 -10 4 -10 6 0 11 5 11 10 0 6 -2 10 -4 10 -3 0
-8 -4 -11 -10z"/>
<path d="M11286 1244 c-9 -20 -15 -39 -12 -41 2 -3 12 12 21 32 10 19 16 38
13 40 -2 3 -12 -12 -22 -31z"/>
<path d="M3153 1234 c-3 -8 -1 -20 5 -26 6 -6 8 -17 5 -24 -3 -8 1 -14 9 -14
10 0 13 11 10 40 -4 41 -18 53 -29 24z"/>
<path d="M3260 1240 c0 -5 5 -10 10 -10 6 0 10 5 10 10 0 6 -4 10 -10 10 -5 0
-10 -4 -10 -10z"/>
<path d="M3467 1233 c-14 -13 -6 -25 13 -20 11 3 18 1 14 -4 -7 -11 7 -11 25
0 7 5 10 14 7 20 -8 12 -49 15 -59 4z"/>
<path d="M2800 1204 c0 -8 5 -12 10 -9 6 3 10 10 10 16 0 5 -4 9 -10 9 -5 0
-10 -7 -10 -16z"/>
<path d="M2900 1190 c0 -11 5 -20 10 -20 6 0 10 9 10 20 0 11 -4 20 -10 20 -5
0 -10 -9 -10 -20z"/>
<path d="M3393 1188 c-32 -20 -42 -41 -24 -53 5 -3 12 -1 16 5 3 6 18 10 33
11 35 0 115 5 126 7 5 1 3 9 -5 18 -8 10 -23 14 -41 12 -16 -3 -29 1 -32 9 -7
18 -35 15 -73 -9z"/>
<path d="M2120 1180 c-15 -5 -18 -8 -8 -9 9 -1 23 -4 32 -7 11 -4 16 -1 16 10
0 17 -3 18 -40 6z"/>
<path d="M2465 1180 c3 -5 8 -10 11 -10 2 0 4 5 4 10 0 6 -5 10 -11 10 -5 0
-7 -4 -4 -10z"/>
<path d="M2340 1150 c0 -5 6 -19 13 -31 10 -17 9 -22 -6 -30 -18 -10 -18 -11
0 -25 10 -7 21 -14 25 -14 16 0 18 41 4 69 -17 32 -36 49 -36 31z"/>
<path d="M2443 1122 c7 -28 16 -41 24 -38 19 8 16 -8 -6 -33 -12 -13 -22 -18
-26 -11 -3 5 -1 10 4 10 6 0 11 5 11 10 0 18 -18 10 -25 -10 -4 -11 -10 -18
-15 -15 -4 3 -13 -2 -20 -10 -6 -7 -18 -11 -26 -8 -8 3 -14 -1 -14 -11 0 -17
12 -21 23 -9 4 3 19 8 35 10 15 2 43 5 62 8 19 2 67 7 105 10 98 9 100 9 74
44 -17 24 -19 32 -9 51 6 12 9 24 6 28 -3 3 -6 0 -6 -6 0 -7 -8 -12 -19 -12
-12 0 -25 -13 -36 -36 -13 -28 -20 -33 -28 -24 -9 9 -7 16 11 27 23 16 29 38
13 47 -16 10 -39 -5 -34 -22 2 -9 -3 -26 -11 -37 -9 -11 -16 -14 -16 -7 0 14
-31 46 -50 50 -8 2 -19 11 -26 20 -10 14 -10 9 -1 -26z m67 -62 c0 -5 -2 -10
-4 -10 -3 0 -8 5 -11 10 -3 6 -1 10 4 10 6 0 11 -4 11 -10z"/>
<path d="M3341 1144 c0 -11 3 -14 6 -6 3 7 2 16 -1 19 -3 4 -6 -2 -5 -13z"/>
<path d="M3290 1135 c-14 -16 -10 -18 14 -9 9 3 16 10 16 15 0 14 -16 11 -30
-6z"/>
<path d="M2277 1120 c3 -11 12 -20 20 -20 11 0 11 4 3 20 -6 11 -15 20 -19 20
-5 0 -7 -9 -4 -20z"/>
<path d="M2669 1123 c-13 -9 -26 -18 -28 -19 -2 -2 3 -10 10 -18 8 -8 20 -22
27 -30 7 -10 23 -14 40 -11 15 3 43 6 63 9 20 2 42 7 48 10 16 10 4 26 -20 26
-10 0 -19 7 -19 15 0 10 -10 15 -31 15 -17 0 -38 4 -48 10 -13 6 -25 4 -42 -7z
m61 -18 c10 -11 9 -18 -4 -30 -14 -14 -16 -14 -26 4 -5 11 -10 24 -10 30 0 16
26 13 40 -4z"/>
<path d="M3053 1115 c-7 -8 -13 -17 -13 -20 0 -4 -7 -13 -15 -22 -9 -8 -14
-18 -11 -20 3 -3 13 3 23 12 11 11 18 14 21 6 8 -24 22 -9 22 24 0 37 -7 43
-27 20z"/>
<path d="M3235 1120 c3 -5 13 -10 21 -10 8 0 14 5 14 10 0 6 -9 10 -21 10 -11
0 -17 -4 -14 -10z"/>
<path d="M3161 1106 c-9 -11 -6 -15 19 -18 36 -5 44 0 29 19 -15 17 -34 17
-48 -1z"/>
<path d="M2161 1095 c3 -26 -23 -115 -33 -115 -11 0 -10 27 1 34 4 3 6 17 4
31 -6 28 -23 24 -23 -5 0 -17 -5 -19 -32 -13 -18 3 -38 10 -45 15 -8 7 -23 4
-44 -6 -17 -9 -36 -13 -41 -10 -6 4 -21 0 -35 -7 -23 -12 -27 -11 -47 12 -26
30 -46 27 -46 -7 0 -16 -6 -24 -18 -24 -10 0 -22 -4 -28 -10 -6 -6 -20 -4 -38
5 -34 18 -45 12 -29 -14 16 -26 -21 -58 -59 -53 -37 5 -35 19 3 27 23 5 28 10
18 16 -11 7 -11 11 4 21 12 9 16 20 11 31 -8 22 -29 7 -38 -28 -5 -20 -13 -25
-36 -25 -16 0 -32 -5 -35 -10 -4 -6 -16 -8 -27 -5 -12 4 -27 0 -39 -11 -16
-15 -19 -15 -19 -2 0 18 -20 28 -65 34 -20 2 -24 1 -12 -4 18 -7 17 -8 -1 -25
-15 -14 -25 -15 -46 -8 -33 13 -35 -3 -3 -29 l22 -19 -33 -7 c-18 -4 -35 -11
-38 -16 -12 -18 20 -36 54 -31 24 4 32 10 32 27 0 11 12 29 25 39 24 17 35 11
15 -9 -5 -5 -6 -15 -1 -23 7 -11 18 -11 60 -1 29 7 58 19 66 26 11 12 18 12
33 3 14 -9 30 -9 68 0 76 19 430 69 514 73 8 0 25 10 38 21 12 11 22 16 22 10
0 -6 11 -8 26 -5 19 3 24 10 22 25 -2 17 -11 22 -38 23 -19 1 -37 -2 -40 -6
-3 -5 -14 -2 -25 6 -17 13 -18 16 -5 24 13 8 13 12 -3 27 -18 17 -19 17 -16
-2z m-616 -196 c-7 -10 -35 -1 -35 11 0 5 9 6 20 3 11 -3 17 -9 15 -14z"/>
<path d="M2867 1092 c-20 -4 -23 -40 -4 -47 6 -3 24 -2 39 3 l27 7 -23 20
c-12 11 -30 19 -39 17z"/>
<path d="M1735 1060 c-6 -9 1 -14 18 -11 4 0 7 -3 7 -9 0 -5 7 -10 15 -10 19
0 19 7 1 26 -17 16 -32 18 -41 4z"/>
<path d="M2080 1060 c0 -5 5 -10 10 -10 6 0 10 5 10 10 0 6 -4 10 -10 10 -5 0
-10 -4 -10 -10z"/>
<path d="M2957 1064 c-4 -4 -4 -10 -1 -15 6 -10 34 0 34 12 0 10 -24 12 -33 3z"/>
<path d="M1880 1050 c-13 -8 -12 -10 3 -10 9 0 17 5 17 10 0 12 -1 12 -20 0z"/>
<path d="M2310 1035 c0 -8 4 -15 9 -15 5 0 11 7 15 15 3 9 0 15 -9 15 -8 0
-15 -7 -15 -15z"/>
<path d="M824 987 c-8 -22 -1 -30 21 -25 14 3 14 5 1 23 -14 19 -15 19 -22 2z"/>
<path d="M1283 974 c-7 -18 11 -39 26 -30 17 11 13 46 -4 46 -9 0 -18 -7 -22
-16z"/>
<path d="M930 970 c8 -5 20 -10 25 -10 6 0 3 5 -5 10 -8 5 -19 10 -25 10 -5 0
-3 -5 5 -10z"/>
<path d="M2288 973 c7 -3 16 -2 19 1 4 3 -2 6 -13 5 -11 0 -14 -3 -6 -6z"/>
<path d="M1120 938 c1 -30 2 -31 12 -13 6 11 19 25 27 32 14 11 12 12 -11 13
-25 0 -28 -4 -28 -32z"/>
<path d="M562 943 c2 -9 9 -18 16 -21 18 -6 15 25 -4 32 -11 4 -14 1 -12 -11z"/>
<path d="M1210 937 c0 -7 7 -23 16 -35 8 -12 14 -30 12 -40 -3 -13 -8 -9 -23
16 -19 32 -38 41 -50 22 -3 -5 -1 -10 5 -10 6 0 8 -4 5 -10 -9 -14 -42 -13
-47 2 -3 8 -6 9 -11 1 -4 -6 1 -19 11 -29 14 -16 30 -19 92 -18 41 1 77 2 80
3 3 1 -8 12 -23 26 -31 29 -34 37 -11 28 12 -4 15 -1 12 13 -2 11 -12 19 -22
19 -11 0 -21 6 -24 13 -5 16 -22 16 -22 -1z"/>
<path d="M1102 910 c0 -14 2 -19 5 -12 2 6 2 18 0 25 -3 6 -5 1 -5 -13z"/>
<path d="M800 905 c0 -8 9 -15 21 -15 14 0 18 -4 12 -12 -4 -7 -6 -20 -5 -29
3 -19 -64 -63 -73 -48 -4 5 1 9 10 9 9 0 14 4 10 10 -3 5 -19 2 -38 -9 -30
-17 -34 -17 -80 0 -39 14 -53 16 -68 6 -10 -6 -19 -15 -19 -18 0 -4 -9 -9 -21
-12 -17 -5 -20 -2 -16 14 8 29 -14 19 -39 -19 -18 -26 -24 -29 -33 -18 -9 11
-7 18 11 30 22 16 22 16 -14 16 -31 0 -35 -3 -31 -19 4 -15 -1 -20 -19 -23
-18 -2 -23 -10 -24 -32 l-1 -29 60 7 c33 3 68 6 78 6 13 0 16 6 12 23 -4 20
-3 21 10 5 8 -10 16 -15 19 -13 3 3 52 10 109 16 57 6 115 13 129 14 14 2 31
4 38 4 7 1 17 12 22 26 11 29 18 32 16 8 -1 -15 8 -18 49 -21 58 -3 90 11 65
29 -12 8 -8 10 18 6 35 -4 44 8 12 18 -11 4 -18 11 -15 16 4 5 -5 9 -19 9 -14
0 -26 -4 -26 -10 0 -5 -4 -10 -10 -10 -5 0 -10 5 -10 11 0 18 -32 38 -62 39
-20 0 -26 4 -22 15 5 11 -1 15 -25 15 -21 0 -31 -5 -31 -15z m80 -45 c0 -5 -4
-10 -9 -10 -6 0 -13 5 -16 10 -3 6 1 10 9 10 9 0 16 -4 16 -10z m20 -30 c0 -5
-2 -10 -4 -10 -3 0 -8 5 -11 10 -3 6 -1 10 4 10 6 0 11 -4 11 -10z"/>
<path d="M1066 913 c-12 -12 -6 -43 9 -43 8 0 15 9 15 19 0 21 -13 34 -24 24z"/>
<path d="M556 851 c-3 -5 1 -14 9 -21 13 -10 15 -9 15 9 0 21 -14 28 -24 12z"/>
<path d="M1080 822 c0 -14 11 -21 26 -15 8 3 11 9 8 14 -7 11 -34 12 -34 1z"/>
<path d="M26 791 c-7 -11 3 -41 14 -41 13 0 32 29 25 40 -8 12 -32 13 -39 1z"/>
<path d="M340 769 c0 -24 23 -21 28 4 2 10 -3 17 -12 17 -10 0 -16 -9 -16 -21z"/>
<path d="M2 702 c2 -45 11 -62 34 -62 15 0 -6 98 -23 104 -9 4 -12 -7 -11 -42z"/>
<path d="M228 738 c-3 -9 -27 -12 -76 -10 -59 2 -72 0 -72 -13 0 -8 -5 -15
-11 -15 -9 0 -4 -37 7 -49 6 -6 114 20 114 27 0 4 36 8 81 9 44 1 83 4 86 7 3
3 0 12 -7 21 -9 11 -22 14 -45 9 -22 -4 -37 -1 -48 10 -19 19 -24 20 -29 4z
m-90 -30 c-3 -7 -13 -13 -23 -13 -10 0 -20 6 -22 13 -3 7 5 12 22 12 17 0 25
-5 23 -12z"/>
<path d="M295 740 c-3 -5 -1 -10 4 -10 6 0 11 5 11 10 0 6 -2 10 -4 10 -3 0
-8 -4 -11 -10z"/>
<path d="M3310 610 c0 -5 5 -10 10 -10 6 0 10 5 10 10 0 6 -4 10 -10 10 -5 0
-10 -4 -10 -10z"/>
</g>
</svg>
